<svg width="2554" height="340" viewBox="0 0 2554 340" fill="none" xmlns="http://www.w3.org/2000/svg">
<path d="M324.536 99.7709C321.877 93.9526 318.88 88.3232 315.599 82.8829C310.55 74.4862 304.867 66.5484 298.495 59.1776C293.959 53.9263 289.086 49.0124 283.943 44.3551C275.465 36.6738 266.245 29.843 256.35 23.9707C251.085 20.8523 245.671 17.9904 240.069 15.4525C218.726 5.74627 195.102 0.211426 170.182 0.211426C145.261 0.211426 121.313 5.84076 99.8623 15.655C94.368 18.1659 89.0491 20.9873 83.8923 24.0517C74.9151 29.384 66.4643 35.4859 58.6481 42.3302C52.1818 47.9865 46.1069 54.0613 40.5586 60.6221C34.2948 68.0468 28.733 76.0656 23.7921 84.4894C20.6197 89.9027 17.7038 95.451 15.1389 101.215C5.77017 122.248 0.464844 145.467 0.464844 169.928C0.464844 194.39 5.87817 218 15.3954 239.181C17.9063 244.783 20.7412 250.17 23.8191 255.435C28.598 263.602 33.9438 271.391 39.9916 278.627C46.5929 286.524 53.8827 293.827 61.7935 300.415C68.9887 306.396 76.751 311.674 84.8643 316.426C90.0346 319.45 95.3534 322.231 100.834 324.701C122.042 334.245 145.464 339.672 170.182 339.672C194.899 339.672 217.957 334.34 239.016 324.944C244.591 322.447 249.991 319.639 255.243 316.588C264.247 311.336 272.738 305.329 280.595 298.579C287.277 292.842 293.514 286.605 299.224 279.909C305.407 272.66 310.915 264.857 315.829 256.636C319.028 251.277 321.958 245.755 324.576 240.045C334.337 218.648 339.912 194.956 339.912 169.942C339.912 144.927 334.323 121.208 324.563 99.7979L324.536 99.7709ZM254.365 43.8691C264.449 47.2035 273.372 52.3063 280.568 59.5016C288.047 66.9804 293.311 76.1061 296.605 86.3523C298.266 91.5631 299.346 97.098 299.967 102.835C301.101 113.257 300.52 124.421 298.333 136.044C297.834 138.731 297.28 141.431 296.592 144.171C295.957 146.736 295.282 149.328 294.486 151.92C292.663 157.927 290.382 163.988 287.763 170.077C286.805 172.291 285.86 174.491 284.82 176.705C283.713 179.027 282.498 181.349 281.27 183.684C277.679 190.542 273.44 197.346 268.918 204.096C267.554 206.134 266.231 208.159 264.787 210.184C263.261 212.303 261.641 214.396 260.021 216.502C259.805 214.058 259.508 211.588 259.009 209.023C258.55 206.674 258.037 204.298 257.348 201.868C255.391 194.983 252.462 187.829 248.776 180.525C245.914 184.926 242.796 189.314 239.448 193.687C243.039 201.949 245.131 209.739 245.887 216.866C246.063 218.594 246.346 220.363 246.346 221.983C246.346 223.198 245.968 224.075 245.86 225.196C245.334 230.838 243.768 235.55 240.623 238.776C240.515 238.898 240.407 239.019 240.285 239.141C237.113 242.205 232.347 243.73 226.826 244.338C225.489 244.486 224.383 244.905 222.911 244.905C221.534 244.905 219.982 244.662 218.51 244.54C211.463 243.906 203.458 241.868 194.697 238.196C192.888 237.44 190.998 236.495 189.122 235.604C187.299 234.726 185.49 233.862 183.627 232.863C185.247 231.702 186.854 230.514 188.474 229.272C190.026 228.084 191.565 226.815 193.117 225.56C198.949 220.849 204.754 215.84 210.424 210.238C216.337 204.379 221.669 198.304 226.664 192.149C227.919 190.61 229.256 189.084 230.444 187.532C231.699 185.898 232.82 184.251 233.994 182.618C237.14 178.257 240.001 173.897 242.62 169.55C243.687 167.782 244.78 166.013 245.766 164.258C246.792 162.382 247.696 160.546 248.628 158.697C252.205 151.542 255.067 144.522 256.97 137.772C257.659 135.342 258.172 132.98 258.631 130.631C259.13 128.08 259.4 125.636 259.63 123.206C261.25 125.299 262.897 127.364 264.422 129.483C265.894 131.522 267.23 133.587 268.607 135.639C273.251 142.538 277.584 149.49 281.256 156.496C283.524 150.205 285.347 143.982 286.683 137.88C281.918 129.956 276.545 122.126 270.632 114.472C268.58 111.813 266.38 109.207 264.179 106.588C260.116 101.755 255.877 96.99 251.328 92.3596C250.734 91.7521 250.18 91.1041 249.573 90.4967C249.316 90.2402 249.046 90.0107 248.776 89.7542C244.2 85.2183 239.489 80.9795 234.71 76.9161C232.104 74.6887 229.485 72.4612 226.826 70.3688C218.699 64.024 210.383 58.3002 201.96 53.2378C199.719 51.8879 197.478 50.6459 195.223 49.4039C192.847 48.081 190.472 46.8795 188.096 45.6646C190.688 44.8816 193.279 44.2741 195.871 43.6261C197.356 43.2616 198.855 42.7756 200.326 42.4651C201.595 42.1951 202.797 42.0872 204.052 41.8577C211.895 40.3862 219.509 39.5087 226.704 39.5087C230.552 39.5087 234.143 39.9812 237.774 40.3997C243.592 41.0612 249.141 42.1681 254.325 43.8826L254.365 43.8691ZM128.319 263.818C126.2 262.279 124.162 260.564 122.069 258.931C124.513 258.742 126.983 258.486 129.548 258.013C131.897 257.595 134.259 257.068 136.689 256.42C143.979 254.463 151.633 251.479 159.476 247.578C155.062 244.743 150.661 241.652 146.274 238.344C137.324 242.165 129.129 244.311 121.948 244.972C120.436 245.107 118.843 245.35 117.425 245.35C116.008 245.35 114.901 244.932 113.578 244.783C108.016 244.189 103.21 242.637 100.024 239.532C99.9298 239.438 99.8353 239.33 99.7408 239.235C96.5954 236.009 95.0159 231.284 94.4895 225.641C94.3815 224.507 94.0035 223.63 94.0035 222.401C94.0035 220.795 94.287 219.04 94.4625 217.352C95.2184 210.063 97.3784 202.057 101.104 193.566C97.7564 189.219 94.6515 184.845 91.7895 180.471C87.9692 187.977 84.9722 195.334 82.9743 202.395C82.2858 204.825 81.7594 207.201 81.3139 209.55C80.8144 212.087 80.5309 214.544 80.3149 216.974C78.6949 214.882 77.0615 212.816 75.5226 210.684C74.0646 208.659 72.7146 206.593 71.3377 204.541C66.7208 197.683 62.3874 190.745 58.7021 183.671C57.4871 181.349 56.2721 179.027 55.1652 176.678C54.1257 174.464 53.1807 172.25 52.2223 170.036C53.1942 167.795 54.1527 165.568 55.2192 163.327C56.2721 161.1 57.4466 158.886 58.6076 156.672C62.4009 149.436 66.8828 142.254 71.7022 135.14C73.0926 133.074 74.4021 131.009 75.887 128.97C77.4125 126.878 79.0864 124.826 80.6929 122.761C80.9089 125.177 81.1924 127.634 81.6784 130.158C82.1238 132.494 82.6638 134.856 83.3388 137.273C85.2827 144.171 88.1987 151.353 91.8706 158.67C92.8155 160.546 93.7605 162.395 94.8 164.285C95.7854 166.04 96.8654 167.809 97.9454 169.577C100.564 173.924 103.453 178.257 106.599 182.604C107.773 184.224 108.894 185.844 110.149 187.464C111.35 189.017 112.673 190.542 113.942 192.081C118.87 198.115 124.121 204.096 129.953 209.874C135.812 215.678 141.833 220.849 147.88 225.709C149.406 226.937 150.931 228.219 152.47 229.38C154.104 230.609 155.724 231.77 157.371 232.931C161.771 236.063 166.159 238.898 170.533 241.49C172.328 242.556 174.124 243.609 175.905 244.567C177.809 245.593 179.685 246.565 181.562 247.483C189.203 251.25 196.654 254.139 203.755 256.042C206.172 256.69 208.52 257.203 210.842 257.622C213.421 258.094 215.891 258.351 218.348 258.54C216.283 260.159 214.244 261.914 212.152 263.44C210.1 264.938 208.021 266.221 205.956 267.638C198.49 272.741 190.944 277.452 183.344 281.421C181.184 282.555 179.024 283.838 176.85 284.877C174.555 285.971 172.261 286.808 169.966 287.793C167.738 286.835 165.497 285.89 163.283 284.837C161.069 283.784 158.869 282.623 156.669 281.489C149.163 277.574 141.792 272.957 134.516 268.003C132.45 266.585 130.371 265.276 128.346 263.791L128.319 263.818ZM100.281 100.378C100.281 100.378 100.375 100.297 100.416 100.243C103.629 97.125 108.435 95.586 114.023 94.992C115.319 94.857 116.399 94.4385 117.803 94.4385C119.207 94.4385 120.868 94.6815 122.407 94.83C129.44 95.4915 137.432 97.5434 146.152 101.229C150.553 97.9214 154.968 94.83 159.409 92.0086C151.768 88.2422 144.316 85.3263 137.216 83.3959C134.772 82.7344 132.396 82.2349 130.047 81.8029C127.469 81.3169 124.999 81.0605 122.555 80.858C124.648 79.2245 126.713 77.5506 128.832 75.9981C130.871 74.5131 132.95 73.1902 135.015 71.7862C142.116 66.9804 149.298 62.485 156.628 58.6646C158.828 57.5172 161.029 56.3697 163.243 55.3167C165.457 54.2638 167.684 53.3188 169.912 52.3738C172.207 53.3593 174.501 54.1963 176.81 55.2897C178.97 56.3292 181.13 57.6117 183.303 58.7456C190.728 62.62 198.112 67.2099 205.402 72.1777C207.468 73.5817 209.56 74.8912 211.612 76.3761C213.718 77.9151 215.77 79.6295 217.849 81.263C215.405 81.4519 212.921 81.7084 210.343 82.1809C207.994 82.6129 205.632 83.1259 203.202 83.7739C196.276 85.6368 189.027 88.4582 181.589 92.0761C179.685 93.0076 177.782 93.9526 175.865 94.992C174.083 95.964 172.288 97.0305 170.492 98.0699C166.105 100.648 161.704 103.483 157.29 106.615C155.643 107.776 153.996 108.91 152.349 110.152C150.81 111.327 149.271 112.622 147.732 113.851C141.59 118.751 135.474 124.003 129.521 129.902C123.892 135.477 118.789 141.269 113.996 147.114C116.156 151.407 118.64 155.781 121.502 160.222C126.875 153.31 132.882 146.479 139.484 139.946C146.652 132.845 153.861 126.676 160.975 121.276C162.527 120.101 164.053 119.021 165.592 117.928C167.212 116.767 168.818 115.673 170.425 114.607C172.031 115.673 173.638 116.753 175.257 117.928C176.783 119.021 178.308 120.128 179.834 121.303C186.8 126.622 193.846 132.629 200.839 139.554C207.549 146.196 213.637 153.135 219.077 160.141C221.939 155.686 224.423 151.299 226.569 146.992C221.71 141.053 216.539 135.18 210.815 129.51C205.051 123.814 199.138 118.711 193.198 113.932C191.632 112.676 190.08 111.381 188.528 110.193C186.894 108.964 185.274 107.79 183.641 106.629C185.531 105.616 187.34 104.793 189.176 103.915C191.052 103.024 192.955 102.066 194.778 101.31C203.31 97.7594 211.099 95.8155 217.984 95.181C219.509 95.046 221.102 94.803 222.52 94.803C223.937 94.803 225.017 95.2215 226.326 95.3565C231.915 95.9505 236.721 97.503 239.92 100.608C240.015 100.702 240.11 100.81 240.204 100.905C243.363 104.131 244.942 108.87 245.455 114.539C245.563 115.66 245.941 116.524 245.941 117.739C245.941 119.345 245.658 121.1 245.469 122.801C244.753 129.78 242.688 137.394 239.246 145.48C238.476 147.289 237.545 149.125 236.654 150.961C235.763 152.797 234.926 154.62 233.913 156.469C231.551 160.803 228.851 165.19 225.881 169.591C224.841 171.13 223.694 172.669 222.587 174.208C221.426 175.814 220.36 177.434 219.118 179.04C213.583 186.249 207.319 193.364 200.434 200.181C193.563 206.985 186.651 212.884 179.82 218.135C178.295 219.31 176.783 220.444 175.271 221.537C173.651 222.712 172.045 223.778 170.438 224.858C168.832 223.792 167.239 222.712 165.619 221.551C164.093 220.457 162.568 219.35 161.029 218.189C154.009 212.843 146.922 206.796 139.862 199.803C133.085 193.094 126.929 186.087 121.448 179C120.22 177.407 119.14 175.814 117.992 174.221C116.872 172.682 115.738 171.143 114.698 169.604C111.728 165.23 108.988 160.87 106.612 156.564C105.586 154.701 104.776 152.892 103.872 151.056C102.967 149.22 101.995 147.37 101.226 145.575C97.6484 137.3 95.5424 129.483 94.8135 122.356C94.638 120.682 94.3545 118.954 94.3545 117.361C94.3545 116.132 94.7325 115.241 94.8405 114.121C95.3669 108.451 96.9464 103.713 100.119 100.486C100.159 100.446 100.2 100.392 100.24 100.351L100.281 100.378ZM39.8566 103.915C40.4101 98.0294 41.5981 92.4811 43.218 87.2163C46.5119 76.4841 51.8443 67.0749 59.404 59.5016C66.9098 51.9959 76.157 46.866 86.4437 43.5856C91.6276 41.9387 97.1084 40.8587 102.819 40.2377C106.315 39.8597 109.784 39.4007 113.443 39.4007C120.598 39.4007 128.09 40.3592 135.704 41.7767C141.819 38.2263 148.029 35.0404 154.279 32.1515C148.083 30.356 141.954 28.9251 135.893 27.8991C131.168 27.1026 126.524 26.5761 121.934 26.2656C119.005 26.0631 116.021 25.6987 113.173 25.6987C111.067 25.6987 109.11 26.0766 107.058 26.1846C111.634 24.1732 116.305 22.3777 121.097 20.7983C125.809 19.2458 130.614 17.9229 135.515 16.8159C146.692 14.278 158.262 12.8335 170.195 12.8335C182.129 12.8335 193.279 14.224 204.282 16.6674C209.128 17.7474 213.907 19.0299 218.578 20.5418C223.465 22.1348 228.243 23.9437 232.914 25.9956C230.862 25.8876 228.945 25.4962 226.839 25.4962C223.883 25.4962 220.792 25.7931 217.741 26.0091C213.178 26.3331 208.52 26.9136 203.769 27.7236C201.649 28.0881 199.597 28.2906 197.451 28.7496C193.32 29.6405 189.162 30.761 185.004 31.9895C182.399 32.7589 179.793 33.6904 177.188 34.5814C174.623 35.4724 172.058 36.2688 169.507 37.2813C163.432 39.6842 157.425 42.5461 151.431 45.624C149.217 46.758 147.003 47.9055 144.816 49.1339C142.453 50.4569 140.105 51.8473 137.769 53.2648C129.548 58.2462 121.462 63.8215 113.618 69.9503C110.945 72.0292 108.367 74.2702 105.762 76.4841C101.01 80.507 96.3389 84.7189 91.8031 89.1737C91.3441 89.5787 90.8041 89.8622 90.3586 90.3077C89.8726 90.7937 89.5216 91.3877 89.0761 91.9006C84.5133 96.531 80.2609 101.283 76.1975 106.102C73.9971 108.694 71.7832 111.286 69.7312 113.932C63.6024 121.829 58.0676 129.942 53.1537 138.123C51.8443 140.31 50.4808 142.47 49.2523 144.671C47.9294 147.06 46.7549 149.463 45.54 151.866C44.7435 149.247 44.1225 146.628 43.488 144.009C43.137 142.592 42.678 141.161 42.3676 139.743C42.0976 138.461 41.9626 137.232 41.7196 135.963C39.6001 124.61 38.9252 113.851 39.8701 103.942L39.8566 103.915ZM217.66 319.625C212.989 321.11 208.223 322.352 203.377 323.392C192.658 325.713 181.562 327.009 170.168 327.009C158.775 327.009 147.205 325.646 136.271 323.23C131.384 322.15 126.591 320.867 121.88 319.342C117.115 317.803 112.444 316.048 107.881 314.077C109.663 314.158 111.337 314.495 113.132 314.495C116.251 314.495 119.491 314.117 122.69 313.888C127.28 313.55 131.924 312.983 136.635 312.146C142.44 311.134 148.312 309.77 154.239 308.043C147.988 305.14 141.792 301.968 135.69 298.417C128.076 299.835 120.584 300.793 113.429 300.793C110.068 300.793 106.909 300.348 103.683 300.024C98.0129 299.47 92.586 298.444 87.4292 296.878C76.751 293.625 67.1393 288.441 59.377 280.692C51.4933 272.809 46.1204 263.062 42.894 252.154C41.3551 246.957 40.2886 241.517 39.7621 235.82C38.8577 225.884 39.5191 215.273 41.5711 204.298C37.9802 198.115 34.7943 191.852 31.8784 185.534C30.1369 191.487 28.8815 197.359 27.869 203.164C27.032 207.889 26.4515 212.533 26.1141 217.123C25.7226 222.145 25.6551 227.058 25.8576 231.878C23.9001 227.315 22.1587 222.644 20.6332 217.879C19.1483 213.248 17.8928 208.51 16.8398 203.704C14.4369 192.81 13.087 181.524 13.087 169.915C13.087 158.305 14.3694 147.478 16.6778 136.787C17.7173 131.94 18.9593 127.175 20.4442 122.504C21.9562 117.725 23.6706 113.041 25.6281 108.478C25.4256 113.284 25.5201 118.225 25.9116 123.301C26.2761 127.877 26.87 132.534 27.7205 137.3C28.0445 139.095 28.2335 140.85 28.625 142.673C29.516 146.79 30.6229 150.934 31.8514 155.052C32.6074 157.63 33.5253 160.209 34.4163 162.773C35.2938 165.311 36.0903 167.849 37.0892 170.374C39.4787 176.462 42.3271 182.483 45.405 188.477C46.5659 190.758 47.7539 193.026 49.0094 195.28C50.3593 197.697 51.7768 200.086 53.2212 202.476C58.0271 210.413 63.4269 218.203 69.2992 225.776C71.3647 228.449 73.5651 231.041 75.7655 233.646C79.8424 238.493 84.1083 243.245 88.6171 247.848C89.2111 248.455 89.7511 249.103 90.3586 249.697C90.6016 249.94 90.8716 250.17 91.1281 250.426C95.6909 254.949 100.402 259.188 105.195 263.278C107.8 265.492 110.392 267.733 113.051 269.825C121.057 276.116 129.318 281.84 137.729 286.929C140.078 288.347 142.413 289.737 144.775 291.047C146.976 292.275 149.19 293.436 151.404 294.57C157.384 297.634 163.405 300.496 169.466 302.899C172.018 303.912 174.582 304.708 177.147 305.599C179.753 306.504 182.345 307.435 184.964 308.205C189.108 309.433 193.266 310.567 197.41 311.444C199.26 311.836 201.042 312.011 202.878 312.335C207.616 313.186 212.273 313.793 216.836 314.158C220.198 314.414 223.573 314.725 226.826 314.725C228.594 314.725 230.201 314.374 231.942 314.306C227.298 316.304 222.533 318.086 217.66 319.625ZM323.253 204.595C322.173 209.401 320.891 214.112 319.379 218.743C317.813 223.495 316.058 228.152 314.06 232.701C314.303 227.895 314.249 222.982 313.885 217.973C313.561 213.397 313.021 208.753 312.211 204.042C311.171 197.886 309.862 191.663 308.012 185.358C305.11 191.676 301.911 197.953 298.333 204.136C300.48 215.57 301.087 226.572 300.021 236.846C299.44 242.542 298.374 248.023 296.754 253.207C293.487 263.696 288.182 273.052 280.554 280.679C273.116 288.131 263.788 293.328 253.245 296.635C248.088 298.255 242.607 299.322 236.829 299.916C233.522 300.267 230.282 300.726 226.785 300.726C219.563 300.726 211.936 299.835 204.052 298.35C202.797 298.12 201.609 298.012 200.34 297.742C198.855 297.418 197.356 296.946 195.871 296.581C193.279 295.933 190.701 295.326 188.096 294.543C190.485 293.341 192.847 292.126 195.223 290.804C197.478 289.548 199.719 288.306 201.96 286.97C210.545 281.813 219.01 275.954 227.285 269.461C229.958 267.355 232.577 265.141 235.196 262.886C240.015 258.769 244.78 254.49 249.397 249.886C249.451 249.832 249.519 249.778 249.573 249.711C250.329 248.955 251.004 248.158 251.76 247.389C256.296 242.745 260.534 237.98 264.584 233.133C266.785 230.501 268.972 227.882 271.024 225.196C276.774 217.703 282.012 210.063 286.67 202.314C288.101 199.938 289.572 197.575 290.895 195.186C292.177 192.891 293.298 190.583 294.472 188.261C297.537 182.213 300.358 176.152 302.721 170.104C303.72 167.566 304.543 165.055 305.407 162.517C306.284 159.966 307.243 157.401 307.999 154.849C309.875 148.464 311.185 142.173 312.238 135.95C313.034 131.211 313.588 126.541 313.898 121.924C314.236 116.888 314.29 111.948 314.033 107.115C316.031 111.691 317.813 116.362 319.379 121.154C320.905 125.798 322.187 130.55 323.28 135.383C325.791 146.506 327.236 158.035 327.236 169.928C327.236 181.821 325.778 193.445 323.253 204.609V204.595Z" fill="white"/>
<path d="M324.536 99.7709C321.877 93.9526 318.88 88.3232 315.599 82.8829C310.55 74.4862 304.867 66.5484 298.495 59.1776C293.959 53.9263 289.086 49.0124 283.943 44.3551C275.465 36.6738 266.245 29.843 256.35 23.9707C251.085 20.8523 245.671 17.9904 240.069 15.4525C218.726 5.74627 195.102 0.211426 170.182 0.211426C145.261 0.211426 121.313 5.84076 99.8623 15.655C94.368 18.1659 89.0491 20.9873 83.8923 24.0517C74.9151 29.384 66.4643 35.4859 58.6481 42.3302C52.1818 47.9865 46.1069 54.0613 40.5586 60.6221C34.2948 68.0468 28.733 76.0656 23.7921 84.4894C20.6197 89.9027 17.7038 95.451 15.1389 101.215C5.77017 122.248 0.464844 145.467 0.464844 169.928C0.464844 194.39 5.87817 218 15.3954 239.181C17.9063 244.783 20.7412 250.17 23.8191 255.435C28.598 263.602 33.9438 271.391 39.9916 278.627C46.5929 286.524 53.8827 293.827 61.7935 300.415C68.9887 306.396 76.751 311.674 84.8643 316.426C90.0346 319.45 95.3534 322.231 100.834 324.701C122.042 334.245 145.464 339.672 170.182 339.672C194.899 339.672 217.957 334.34 239.016 324.944C244.591 322.447 249.991 319.639 255.243 316.588C264.247 311.336 272.738 305.329 280.595 298.579C287.277 292.842 293.514 286.605 299.224 279.909C305.407 272.66 310.915 264.857 315.829 256.636C319.028 251.277 321.958 245.755 324.576 240.045C334.337 218.648 339.912 194.956 339.912 169.942C339.912 144.927 334.323 121.208 324.563 99.7979L324.536 99.7709ZM254.365 43.8691C264.449 47.2035 273.372 52.3063 280.568 59.5016C288.047 66.9804 293.311 76.1061 296.605 86.3523C298.266 91.5631 299.346 97.098 299.967 102.835C301.101 113.257 300.52 124.421 298.333 136.044C297.834 138.731 297.28 141.431 296.592 144.171C295.957 146.736 295.282 149.328 294.486 151.92C292.663 157.927 290.382 163.988 287.763 170.077C286.805 172.291 285.86 174.491 284.82 176.705C283.713 179.027 282.498 181.349 281.27 183.684C277.679 190.542 273.44 197.346 268.918 204.096C267.554 206.134 266.231 208.159 264.787 210.184C263.261 212.303 261.641 214.396 260.021 216.502C259.805 214.058 259.508 211.588 259.009 209.023C258.55 206.674 258.037 204.298 257.348 201.868C255.391 194.983 252.462 187.829 248.776 180.525C245.914 184.926 242.796 189.314 239.448 193.687C243.039 201.949 245.131 209.739 245.887 216.866C246.063 218.594 246.346 220.363 246.346 221.983C246.346 223.198 245.968 224.075 245.86 225.196C245.334 230.838 243.768 235.55 240.623 238.776C240.515 238.898 240.407 239.019 240.285 239.141C237.113 242.205 232.347 243.73 226.826 244.338C225.489 244.486 224.383 244.905 222.911 244.905C221.534 244.905 219.982 244.662 218.51 244.54C211.463 243.906 203.458 241.868 194.697 238.196C192.888 237.44 190.998 236.495 189.122 235.604C187.299 234.726 185.49 233.862 183.627 232.863C185.247 231.702 186.854 230.514 188.474 229.272C190.026 228.084 191.565 226.815 193.117 225.56C198.949 220.849 204.754 215.84 210.424 210.238C216.337 204.379 221.669 198.304 226.664 192.149C227.919 190.61 229.256 189.084 230.444 187.532C231.699 185.898 232.82 184.251 233.994 182.618C237.14 178.257 240.001 173.897 242.62 169.55C243.687 167.782 244.78 166.013 245.766 164.258C246.792 162.382 247.696 160.546 248.628 158.697C252.205 151.542 255.067 144.522 256.97 137.772C257.659 135.342 258.172 132.98 258.631 130.631C259.13 128.08 259.4 125.636 259.63 123.206C261.25 125.299 262.897 127.364 264.422 129.483C265.894 131.522 267.23 133.587 268.607 135.639C273.251 142.538 277.584 149.49 281.256 156.496C283.524 150.205 285.347 143.982 286.683 137.88C281.918 129.956 276.545 122.126 270.632 114.472C268.58 111.813 266.38 109.207 264.179 106.588C260.116 101.755 255.877 96.99 251.328 92.3596C250.734 91.7521 250.18 91.1041 249.573 90.4967C249.316 90.2402 249.046 90.0107 248.776 89.7542C244.2 85.2183 239.489 80.9795 234.71 76.9161C232.104 74.6887 229.485 72.4612 226.826 70.3688C218.699 64.024 210.383 58.3002 201.96 53.2378C199.719 51.8879 197.478 50.6459 195.223 49.4039C192.847 48.081 190.472 46.8795 188.096 45.6646C190.688 44.8816 193.279 44.2741 195.871 43.6261C197.356 43.2616 198.855 42.7756 200.326 42.4651C201.595 42.1951 202.797 42.0872 204.052 41.8577C211.895 40.3862 219.509 39.5087 226.704 39.5087C230.552 39.5087 234.143 39.9812 237.774 40.3997C243.592 41.0612 249.141 42.1681 254.325 43.8826L254.365 43.8691ZM128.319 263.818C126.2 262.279 124.162 260.564 122.069 258.931C124.513 258.742 126.983 258.486 129.548 258.013C131.897 257.595 134.259 257.068 136.689 256.42C143.979 254.463 151.633 251.479 159.476 247.578C155.062 244.743 150.661 241.652 146.274 238.344C137.324 242.165 129.129 244.311 121.948 244.972C120.436 245.107 118.843 245.35 117.425 245.35C116.008 245.35 114.901 244.932 113.578 244.783C108.016 244.189 103.21 242.637 100.024 239.532C99.9298 239.438 99.8353 239.33 99.7408 239.235C96.5954 236.009 95.0159 231.284 94.4895 225.641C94.3815 224.507 94.0035 223.63 94.0035 222.401C94.0035 220.795 94.287 219.04 94.4625 217.352C95.2184 210.063 97.3784 202.057 101.104 193.566C97.7564 189.219 94.6515 184.845 91.7895 180.471C87.9692 187.977 84.9722 195.334 82.9743 202.395C82.2858 204.825 81.7594 207.201 81.3139 209.55C80.8144 212.087 80.5309 214.544 80.3149 216.974C78.6949 214.882 77.0615 212.816 75.5226 210.684C74.0646 208.659 72.7146 206.593 71.3377 204.541C66.7208 197.683 62.3874 190.745 58.7021 183.671C57.4871 181.349 56.2721 179.027 55.1652 176.678C54.1257 174.464 53.1807 172.25 52.2223 170.036C53.1942 167.795 54.1527 165.568 55.2192 163.327C56.2721 161.1 57.4466 158.886 58.6076 156.672C62.4009 149.436 66.8828 142.254 71.7022 135.14C73.0926 133.074 74.4021 131.009 75.887 128.97C77.4125 126.878 79.0864 124.826 80.6929 122.761C80.9089 125.177 81.1924 127.634 81.6784 130.158C82.1238 132.494 82.6638 134.856 83.3388 137.273C85.2827 144.171 88.1987 151.353 91.8706 158.67C92.8155 160.546 93.7605 162.395 94.8 164.285C95.7854 166.04 96.8654 167.809 97.9454 169.577C100.564 173.924 103.453 178.257 106.599 182.604C107.773 184.224 108.894 185.844 110.149 187.464C111.35 189.017 112.673 190.542 113.942 192.081C118.87 198.115 124.121 204.096 129.953 209.874C135.812 215.678 141.833 220.849 147.88 225.709C149.406 226.937 150.931 228.219 152.47 229.38C154.104 230.609 155.724 231.77 157.371 232.931C161.771 236.063 166.159 238.898 170.533 241.49C172.328 242.556 174.124 243.609 175.905 244.567C177.809 245.593 179.685 246.565 181.562 247.483C189.203 251.25 196.654 254.139 203.755 256.042C206.172 256.69 208.52 257.203 210.842 257.622C213.421 258.094 215.891 258.351 218.348 258.54C216.283 260.159 214.244 261.914 212.152 263.44C210.1 264.938 208.021 266.221 205.956 267.638C198.49 272.741 190.944 277.452 183.344 281.421C181.184 282.555 179.024 283.838 176.85 284.877C174.555 285.971 172.261 286.808 169.966 287.793C167.738 286.835 165.497 285.89 163.283 284.837C161.069 283.784 158.869 282.623 156.669 281.489C149.163 277.574 141.792 272.957 134.516 268.003C132.45 266.585 130.371 265.276 128.346 263.791L128.319 263.818ZM100.281 100.378C100.281 100.378 100.375 100.297 100.416 100.243C103.629 97.125 108.435 95.586 114.023 94.992C115.319 94.857 116.399 94.4385 117.803 94.4385C119.207 94.4385 120.868 94.6815 122.407 94.83C129.44 95.4915 137.432 97.5434 146.152 101.229C150.553 97.9214 154.968 94.83 159.409 92.0086C151.768 88.2422 144.316 85.3263 137.216 83.3959C134.772 82.7344 132.396 82.2349 130.047 81.8029C127.469 81.3169 124.999 81.0605 122.555 80.858C124.648 79.2245 126.713 77.5506 128.832 75.9981C130.871 74.5131 132.95 73.1902 135.015 71.7862C142.116 66.9804 149.298 62.485 156.628 58.6646C158.828 57.5172 161.029 56.3697 163.243 55.3167C165.457 54.2638 167.684 53.3188 169.912 52.3738C172.207 53.3593 174.501 54.1963 176.81 55.2897C178.97 56.3292 181.13 57.6117 183.303 58.7456C190.728 62.62 198.112 67.2099 205.402 72.1777C207.468 73.5817 209.56 74.8912 211.612 76.3761C213.718 77.9151 215.77 79.6295 217.849 81.263C215.405 81.4519 212.921 81.7084 210.343 82.1809C207.994 82.6129 205.632 83.1259 203.202 83.7739C196.276 85.6368 189.027 88.4582 181.589 92.0761C179.685 93.0076 177.782 93.9526 175.865 94.992C174.083 95.964 172.288 97.0305 170.492 98.0699C166.105 100.648 161.704 103.483 157.29 106.615C155.643 107.776 153.996 108.91 152.349 110.152C150.81 111.327 149.271 112.622 147.732 113.851C141.59 118.751 135.474 124.003 129.521 129.902C123.892 135.477 118.789 141.269 113.996 147.114C116.156 151.407 118.64 155.781 121.502 160.222C126.875 153.31 132.882 146.479 139.484 139.946C146.652 132.845 153.861 126.676 160.975 121.276C162.527 120.101 164.053 119.021 165.592 117.928C167.212 116.767 168.818 115.673 170.425 114.607C172.031 115.673 173.638 116.753 175.257 117.928C176.783 119.021 178.308 120.128 179.834 121.303C186.8 126.622 193.846 132.629 200.839 139.554C207.549 146.196 213.637 153.135 219.077 160.141C221.939 155.686 224.423 151.299 226.569 146.992C221.71 141.053 216.539 135.18 210.815 129.51C205.051 123.814 199.138 118.711 193.198 113.932C191.632 112.676 190.08 111.381 188.528 110.193C186.894 108.964 185.274 107.79 183.641 106.629C185.531 105.616 187.34 104.793 189.176 103.915C191.052 103.024 192.955 102.066 194.778 101.31C203.31 97.7594 211.099 95.8155 217.984 95.181C219.509 95.046 221.102 94.803 222.52 94.803C223.937 94.803 225.017 95.2215 226.326 95.3565C231.915 95.9505 236.721 97.503 239.92 100.608C240.015 100.702 240.11 100.81 240.204 100.905C243.363 104.131 244.942 108.87 245.455 114.539C245.563 115.66 245.941 116.524 245.941 117.739C245.941 119.345 245.658 121.1 245.469 122.801C244.753 129.78 242.688 137.394 239.246 145.48C238.476 147.289 237.545 149.125 236.654 150.961C235.763 152.797 234.926 154.62 233.913 156.469C231.551 160.803 228.851 165.19 225.881 169.591C224.841 171.13 223.694 172.669 222.587 174.208C221.426 175.814 220.36 177.434 219.118 179.04C213.583 186.249 207.319 193.364 200.434 200.181C193.563 206.985 186.651 212.884 179.82 218.135C178.295 219.31 176.783 220.444 175.271 221.537C173.651 222.712 172.045 223.778 170.438 224.858C168.832 223.792 167.239 222.712 165.619 221.551C164.093 220.457 162.568 219.35 161.029 218.189C154.009 212.843 146.922 206.796 139.862 199.803C133.085 193.094 126.929 186.087 121.448 179C120.22 177.407 119.14 175.814 117.992 174.221C116.872 172.682 115.738 171.143 114.698 169.604C111.728 165.23 108.988 160.87 106.612 156.564C105.586 154.701 104.776 152.892 103.872 151.056C102.967 149.22 101.995 147.37 101.226 145.575C97.6484 137.3 95.5424 129.483 94.8135 122.356C94.638 120.682 94.3545 118.954 94.3545 117.361C94.3545 116.132 94.7325 115.241 94.8405 114.121C95.3669 108.451 96.9464 103.713 100.119 100.486C100.159 100.446 100.2 100.392 100.24 100.351L100.281 100.378ZM39.8566 103.915C40.4101 98.0294 41.5981 92.4811 43.218 87.2163C46.5119 76.4841 51.8443 67.0749 59.404 59.5016C66.9098 51.9959 76.157 46.866 86.4437 43.5856C91.6276 41.9387 97.1084 40.8587 102.819 40.2377C106.315 39.8597 109.784 39.4007 113.443 39.4007C120.598 39.4007 128.09 40.3592 135.704 41.7767C141.819 38.2263 148.029 35.0404 154.279 32.1515C148.083 30.356 141.954 28.9251 135.893 27.8991C131.168 27.1026 126.524 26.5761 121.934 26.2656C119.005 26.0631 116.021 25.6987 113.173 25.6987C111.067 25.6987 109.11 26.0766 107.058 26.1846C111.634 24.1732 116.305 22.3777 121.097 20.7983C125.809 19.2458 130.614 17.9229 135.515 16.8159C146.692 14.278 158.262 12.8335 170.195 12.8335C182.129 12.8335 193.279 14.224 204.282 16.6674C209.128 17.7474 213.907 19.0299 218.578 20.5418C223.465 22.1348 228.243 23.9437 232.914 25.9956C230.862 25.8876 228.945 25.4962 226.839 25.4962C223.883 25.4962 220.792 25.7931 217.741 26.0091C213.178 26.3331 208.52 26.9136 203.769 27.7236C201.649 28.0881 199.597 28.2906 197.451 28.7496C193.32 29.6405 189.162 30.761 185.004 31.9895C182.399 32.7589 179.793 33.6904 177.188 34.5814C174.623 35.4724 172.058 36.2688 169.507 37.2813C163.432 39.6842 157.425 42.5461 151.431 45.624C149.217 46.758 147.003 47.9055 144.816 49.1339C142.453 50.4569 140.105 51.8473 137.769 53.2648C129.548 58.2462 121.462 63.8215 113.618 69.9503C110.945 72.0292 108.367 74.2702 105.762 76.4841C101.01 80.507 96.3389 84.7189 91.8031 89.1737C91.3441 89.5787 90.8041 89.8622 90.3586 90.3077C89.8726 90.7937 89.5216 91.3877 89.0761 91.9006C84.5133 96.531 80.2609 101.283 76.1975 106.102C73.9971 108.694 71.7832 111.286 69.7312 113.932C63.6024 121.829 58.0676 129.942 53.1537 138.123C51.8443 140.31 50.4808 142.47 49.2523 144.671C47.9294 147.06 46.7549 149.463 45.54 151.866C44.7435 149.247 44.1225 146.628 43.488 144.009C43.137 142.592 42.678 141.161 42.3676 139.743C42.0976 138.461 41.9626 137.232 41.7196 135.963C39.6001 124.61 38.9252 113.851 39.8701 103.942L39.8566 103.915ZM217.66 319.625C212.989 321.11 208.223 322.352 203.377 323.392C192.658 325.713 181.562 327.009 170.168 327.009C158.775 327.009 147.205 325.646 136.271 323.23C131.384 322.15 126.591 320.867 121.88 319.342C117.115 317.803 112.444 316.048 107.881 314.077C109.663 314.158 111.337 314.495 113.132 314.495C116.251 314.495 119.491 314.117 122.69 313.888C127.28 313.55 131.924 312.983 136.635 312.146C142.44 311.134 148.312 309.77 154.239 308.043C147.988 305.14 141.792 301.968 135.69 298.417C128.076 299.835 120.584 300.793 113.429 300.793C110.068 300.793 106.909 300.348 103.683 300.024C98.0129 299.47 92.586 298.444 87.4292 296.878C76.751 293.625 67.1393 288.441 59.377 280.692C51.4933 272.809 46.1204 263.062 42.894 252.154C41.3551 246.957 40.2886 241.517 39.7621 235.82C38.8577 225.884 39.5191 215.273 41.5711 204.298C37.9802 198.115 34.7943 191.852 31.8784 185.534C30.1369 191.487 28.8815 197.359 27.869 203.164C27.032 207.889 26.4515 212.533 26.1141 217.123C25.7226 222.145 25.6551 227.058 25.8576 231.878C23.9001 227.315 22.1587 222.644 20.6332 217.879C19.1483 213.248 17.8928 208.51 16.8398 203.704C14.4369 192.81 13.087 181.524 13.087 169.915C13.087 158.305 14.3694 147.478 16.6778 136.787C17.7173 131.94 18.9593 127.175 20.4442 122.504C21.9562 117.725 23.6706 113.041 25.6281 108.478C25.4256 113.284 25.5201 118.225 25.9116 123.301C26.2761 127.877 26.87 132.534 27.7205 137.3C28.0445 139.095 28.2335 140.85 28.625 142.673C29.516 146.79 30.6229 150.934 31.8514 155.052C32.6074 157.63 33.5253 160.209 34.4163 162.773C35.2938 165.311 36.0903 167.849 37.0892 170.374C39.4787 176.462 42.3271 182.483 45.405 188.477C46.5659 190.758 47.7539 193.026 49.0094 195.28C50.3593 197.697 51.7768 200.086 53.2212 202.476C58.0271 210.413 63.4269 218.203 69.2992 225.776C71.3647 228.449 73.5651 231.041 75.7655 233.646C79.8424 238.493 84.1083 243.245 88.6171 247.848C89.2111 248.455 89.7511 249.103 90.3586 249.697C90.6016 249.94 90.8716 250.17 91.1281 250.426C95.6909 254.949 100.402 259.188 105.195 263.278C107.8 265.492 110.392 267.733 113.051 269.825C121.057 276.116 129.318 281.84 137.729 286.929C140.078 288.347 142.413 289.737 144.775 291.047C146.976 292.275 149.19 293.436 151.404 294.57C157.384 297.634 163.405 300.496 169.466 302.899C172.018 303.912 174.582 304.708 177.147 305.599C179.753 306.504 182.345 307.435 184.964 308.205C189.108 309.433 193.266 310.567 197.41 311.444C199.26 311.836 201.042 312.011 202.878 312.335C207.616 313.186 212.273 313.793 216.836 314.158C220.198 314.414 223.573 314.725 226.826 314.725C228.594 314.725 230.201 314.374 231.942 314.306C227.298 316.304 222.533 318.086 217.66 319.625ZM323.253 204.595C322.173 209.401 320.891 214.112 319.379 218.743C317.813 223.495 316.058 228.152 314.06 232.701C314.303 227.895 314.249 222.982 313.885 217.973C313.561 213.397 313.021 208.753 312.211 204.042C311.171 197.886 309.862 191.663 308.012 185.358C305.11 191.676 301.911 197.953 298.333 204.136C300.48 215.57 301.087 226.572 300.021 236.846C299.44 242.542 298.374 248.023 296.754 253.207C293.487 263.696 288.182 273.052 280.554 280.679C273.116 288.131 263.788 293.328 253.245 296.635C248.088 298.255 242.607 299.322 236.829 299.916C233.522 300.267 230.282 300.726 226.785 300.726C219.563 300.726 211.936 299.835 204.052 298.35C202.797 298.12 201.609 298.012 200.34 297.742C198.855 297.418 197.356 296.946 195.871 296.581C193.279 295.933 190.701 295.326 188.096 294.543C190.485 293.341 192.847 292.126 195.223 290.804C197.478 289.548 199.719 288.306 201.96 286.97C210.545 281.813 219.01 275.954 227.285 269.461C229.958 267.355 232.577 265.141 235.196 262.886C240.015 258.769 244.78 254.49 249.397 249.886C249.451 249.832 249.519 249.778 249.573 249.711C250.329 248.955 251.004 248.158 251.76 247.389C256.296 242.745 260.534 237.98 264.584 233.133C266.785 230.501 268.972 227.882 271.024 225.196C276.774 217.703 282.012 210.063 286.67 202.314C288.101 199.938 289.572 197.575 290.895 195.186C292.177 192.891 293.298 190.583 294.472 188.261C297.537 182.213 300.358 176.152 302.721 170.104C303.72 167.566 304.543 165.055 305.407 162.517C306.284 159.966 307.243 157.401 307.999 154.849C309.875 148.464 311.185 142.173 312.238 135.95C313.034 131.211 313.588 126.541 313.898 121.924C314.236 116.888 314.29 111.948 314.033 107.115C316.031 111.691 317.813 116.362 319.379 121.154C320.905 125.798 322.187 130.55 323.28 135.383C325.791 146.506 327.236 158.035 327.236 169.928C327.236 181.821 325.778 193.445 323.253 204.609V204.595Z" fill="white"/>
<path d="M472.684 188.778C473.093 209.82 483.92 225.141 515.381 225.141C543.368 225.141 551.948 215.54 551.948 199.81C551.948 185.509 544.39 178.359 527.229 175.499L495.156 170.596C471.663 167.123 460.836 155.479 460.836 135.05C460.836 113.191 477.179 95.8265 512.316 95.8265C548.067 95.8265 565.636 113.804 567.474 139.953H550.927C549.088 121.567 537.853 109.105 512.316 109.105C488.21 109.105 477.996 119.524 477.996 134.641C477.996 145.264 482.899 153.64 498.425 156.092L532.337 161.199C556.443 165.08 569.109 175.703 569.109 197.562C569.109 223.507 553.378 238.42 515.381 238.42C471.459 238.42 456.137 215.54 456.137 188.778H472.684ZM651.841 238.829C604.65 238.829 584.017 208.39 584.017 167.328C584.017 126.878 604.65 95.8265 651.841 95.8265C699.032 95.8265 719.461 127.083 719.461 167.328C719.461 208.185 699.032 238.829 651.841 238.829ZM601.79 167.328C601.79 205.53 617.112 224.733 651.841 224.733C686.57 224.733 701.687 205.53 701.687 167.328C701.687 129.126 686.57 109.922 651.841 109.922C617.112 109.922 601.79 129.126 601.79 167.328ZM804.469 238.829C757.686 238.829 736.645 208.594 736.645 167.328C736.645 126.47 758.095 95.8265 804.877 95.8265C846.756 95.8265 865.755 116.46 869.228 150.167H851.864C849.004 123.61 834.091 109.922 804.673 109.922C770.557 109.922 754.418 129.33 754.418 167.328C754.418 205.325 770.148 224.733 804.264 224.733C835.112 224.733 850.638 208.798 852.272 181.219H869.637C867.594 215.744 848.186 238.829 804.469 238.829ZM893.855 235.356V221.668H922.659V113.191H893.855V99.5037H968.42V113.191H939.615V221.668H968.42V235.356H893.855ZM1024.74 172.231V221.668H1108.91V235.356H1007.79V99.5037H1108.3V113.191H1024.74V158.748H1102.17V172.231H1024.74ZM1171.08 235.56V113.191H1122.05V99.5037H1236.45V113.191H1187.83V235.56H1171.08ZM1237.25 99.5037H1256.66L1287.5 155.683C1290.57 161.608 1293.63 167.328 1296.9 173.048C1299.96 167.328 1303.23 161.608 1306.3 155.683L1337.35 99.5037H1356.35L1305.28 187.757V235.356H1288.32V187.757L1237.25 99.5037ZM1476.72 99.5037C1505.93 99.5037 1517.78 117.277 1517.78 139.136C1517.78 160.79 1505.93 178.972 1475.9 178.972H1431.57V235.356H1414.41V99.5037H1476.72ZM1431.57 165.285H1472.43C1492.65 165.285 1500.01 154.662 1500.01 139.136C1500.01 122.997 1492.65 113.191 1473.04 113.191H1431.57V165.285ZM1639.42 213.701C1639.42 223.711 1640.85 230.249 1642.08 235.356H1625.53C1624.1 230.861 1623.08 224.12 1623.08 214.314V201.852C1623.08 182.445 1612.66 174.478 1593.86 174.478H1555.66V235.356H1538.71V99.5037H1602.04C1630.02 99.5037 1643.71 113.395 1643.71 135.254C1643.71 153.436 1632.48 166.102 1617.36 169.575C1630.23 173.252 1639.42 179.381 1639.42 199.401V213.701ZM1555.66 161.812H1599.99C1618.99 161.812 1625.94 152.21 1625.94 136.684C1625.94 120.954 1617.97 113.191 1600.2 113.191H1555.66V161.812ZM1727.51 238.829C1680.32 238.829 1659.68 208.39 1659.68 167.328C1659.68 126.878 1680.32 95.8265 1727.51 95.8265C1774.7 95.8265 1795.13 127.083 1795.13 167.328C1795.13 208.185 1774.7 238.829 1727.51 238.829ZM1677.46 167.328C1677.46 205.53 1692.78 224.733 1727.51 224.733C1762.24 224.733 1777.35 205.53 1777.35 167.328C1777.35 129.126 1762.24 109.922 1727.51 109.922C1692.78 109.922 1677.46 129.126 1677.46 167.328ZM1848.04 235.56V113.191H1799.01V99.5037H1913.41V113.191H1864.79V235.56H1848.04ZM1984.68 238.829C1937.49 238.829 1916.86 208.39 1916.86 167.328C1916.86 126.878 1937.49 95.8265 1984.68 95.8265C2031.87 95.8265 2052.3 127.083 2052.3 167.328C2052.3 208.185 2031.87 238.829 1984.68 238.829ZM1934.63 167.328C1934.63 205.53 1949.95 224.733 1984.68 224.733C2019.41 224.733 2034.53 205.53 2034.53 167.328C2034.53 129.126 2019.41 109.922 1984.68 109.922C1949.95 109.922 1934.63 129.126 1934.63 167.328ZM2137.31 238.829C2090.53 238.829 2069.49 208.594 2069.49 167.328C2069.49 126.47 2090.94 95.8265 2137.72 95.8265C2179.6 95.8265 2198.6 116.46 2202.07 150.167H2184.71C2181.85 123.61 2166.93 109.922 2137.52 109.922C2103.4 109.922 2087.26 129.33 2087.26 167.328C2087.26 205.325 2102.99 224.733 2137.11 224.733C2167.95 224.733 2183.48 208.798 2185.12 181.219H2202.48C2200.44 215.744 2181.03 238.829 2137.31 238.829ZM2286.55 238.829C2239.36 238.829 2218.72 208.39 2218.72 167.328C2218.72 126.878 2239.36 95.8265 2286.55 95.8265C2333.74 95.8265 2354.17 127.083 2354.17 167.328C2354.17 208.185 2333.74 238.829 2286.55 238.829ZM2236.5 167.328C2236.5 205.53 2251.82 224.733 2286.55 224.733C2321.28 224.733 2336.39 205.53 2336.39 167.328C2336.39 129.126 2321.28 109.922 2286.55 109.922C2251.82 109.922 2236.5 129.126 2236.5 167.328ZM2376.87 235.356V99.5037H2393.82V221.668H2464.92V235.356H2376.87Z" fill="white"/>
</svg>
