<svg width="2554" height="341" viewBox="0 0 2554 341" fill="none" xmlns="http://www.w3.org/2000/svg">
<path d="M324.536 100.247C321.877 94.4286 318.88 88.7993 315.599 83.359C310.55 74.9622 304.867 67.0245 298.495 59.6537C293.959 54.4024 289.086 49.4885 283.943 44.8312C275.465 37.1499 266.245 30.3191 256.35 24.4468C251.085 21.3284 245.671 18.4665 240.069 15.9285C218.726 6.22234 195.102 0.6875 170.182 0.6875C145.261 0.6875 121.313 6.31683 99.8623 16.131C94.368 18.642 89.0491 21.4634 83.8923 24.5278C74.9151 29.8601 66.4643 35.9619 58.6481 42.8062C52.1818 48.4626 46.1069 54.5374 40.5586 61.0981C34.2948 68.5229 28.733 76.5417 23.7921 84.9654C20.6197 90.3788 17.7038 95.9271 15.1389 101.691C5.77017 122.724 0.464844 145.943 0.464844 170.404C0.464844 194.866 5.87817 218.476 15.3954 239.657C17.9063 245.26 20.7412 250.646 23.8191 255.911C28.598 264.078 33.9438 271.867 39.9916 279.103C46.5929 287 53.8827 294.304 61.7935 300.891C68.9887 306.872 76.751 312.15 84.8643 316.902C90.0346 319.926 95.3534 322.707 100.834 325.177C122.042 334.721 145.464 340.148 170.182 340.148C194.899 340.148 217.957 334.816 239.016 325.42C244.591 322.923 249.991 320.115 255.243 317.064C264.247 311.812 272.738 305.805 280.595 299.055C287.277 293.318 293.514 287.081 299.224 280.385C305.407 273.136 310.915 265.333 315.829 257.112C319.028 251.753 321.958 246.232 324.576 240.521C334.337 219.124 339.912 195.433 339.912 170.418C339.912 145.403 334.323 121.684 324.563 100.274L324.536 100.247ZM254.365 44.3452C264.449 47.6796 273.372 52.7824 280.568 59.9777C288.047 67.4565 293.311 76.5822 296.605 86.8284C298.266 92.0392 299.346 97.574 299.967 103.311C301.101 113.733 300.52 124.897 298.333 136.52C297.834 139.207 297.28 141.907 296.592 144.647C295.957 147.212 295.282 149.804 294.486 152.396C292.663 158.403 290.382 164.464 287.763 170.553C286.805 172.767 285.86 174.967 284.82 177.181C283.713 179.503 282.498 181.825 281.27 184.16C277.679 191.018 273.44 197.822 268.918 204.572C267.554 206.61 266.231 208.635 264.787 210.66C263.261 212.779 261.641 214.872 260.021 216.978C259.805 214.534 259.508 212.064 259.009 209.499C258.55 207.15 258.037 204.774 257.348 202.344C255.391 195.46 252.462 188.305 248.776 181.001C245.914 185.402 242.796 189.79 239.448 194.164C243.039 202.425 245.131 210.215 245.887 217.342C246.063 219.07 246.346 220.839 246.346 222.459C246.346 223.674 245.968 224.551 245.86 225.672C245.334 231.314 243.768 236.026 240.623 239.252C240.515 239.374 240.407 239.495 240.285 239.617C237.113 242.681 232.347 244.207 226.826 244.814C225.489 244.963 224.383 245.381 222.911 245.381C221.534 245.381 219.982 245.138 218.51 245.017C211.463 244.382 203.458 242.344 194.697 238.672C192.888 237.916 190.998 236.971 189.122 236.08C187.299 235.202 185.49 234.338 183.627 233.339C185.247 232.178 186.854 230.99 188.474 229.748C190.026 228.561 191.565 227.292 193.117 226.036C198.949 221.325 204.754 216.316 210.424 210.714C216.337 204.855 221.669 198.78 226.664 192.625C227.919 191.086 229.256 189.56 230.444 188.008C231.699 186.374 232.82 184.727 233.994 183.094C237.14 178.734 240.001 174.373 242.62 170.026C243.687 168.258 244.78 166.489 245.766 164.734C246.792 162.858 247.696 161.022 248.628 159.173C252.205 152.018 255.067 144.998 256.97 138.248C257.659 135.818 258.172 133.456 258.631 131.107C259.13 128.556 259.4 126.112 259.63 123.682C261.25 125.775 262.897 127.84 264.422 129.96C265.894 131.998 267.23 134.063 268.607 136.115C273.251 143.014 277.584 149.966 281.256 156.972C283.524 150.681 285.347 144.458 286.683 138.356C281.918 130.432 276.545 122.602 270.632 114.948C268.58 112.289 266.38 109.683 264.179 107.064C260.116 102.231 255.877 97.466 251.328 92.8357C250.734 92.2282 250.18 91.5802 249.573 90.9727C249.316 90.7162 249.046 90.4868 248.776 90.2303C244.2 85.6944 239.489 81.4555 234.71 77.3922C232.104 75.1647 229.485 72.9373 226.826 70.8449C218.699 64.5 210.383 58.7762 201.96 53.7139C199.719 52.3639 197.478 51.122 195.223 49.88C192.847 48.557 190.472 47.3556 188.096 46.1406C190.688 45.3577 193.279 44.7502 195.871 44.1022C197.356 43.7377 198.855 43.2517 200.326 42.9412C201.595 42.6712 202.797 42.5632 204.052 42.3337C211.895 40.8623 219.509 39.9848 226.704 39.9848C230.552 39.9848 234.143 40.4573 237.774 40.8758C243.592 41.5373 249.141 42.6442 254.325 44.3587L254.365 44.3452ZM128.319 264.294C126.2 262.755 124.162 261.041 122.069 259.407C124.513 259.218 126.983 258.962 129.548 258.489C131.897 258.071 134.259 257.544 136.689 256.896C143.979 254.939 151.633 251.955 159.476 248.054C155.062 245.219 150.661 242.128 146.274 238.82C137.324 242.641 129.129 244.787 121.948 245.449C120.436 245.584 118.843 245.827 117.425 245.827C116.008 245.827 114.901 245.408 113.578 245.26C108.016 244.666 103.21 243.113 100.024 240.008C99.9298 239.914 99.8353 239.806 99.7408 239.711C96.5954 236.485 95.0159 231.76 94.4895 226.117C94.3815 224.983 94.0035 224.106 94.0035 222.877C94.0035 221.271 94.287 219.516 94.4625 217.828C95.2184 210.539 97.3784 202.533 101.104 194.042C97.7564 189.695 94.6515 185.321 91.7895 180.947C87.9692 188.453 84.9722 195.811 82.9743 202.871C82.2858 205.301 81.7594 207.677 81.3139 210.026C80.8144 212.564 80.5309 215.02 80.3149 217.45C78.6949 215.358 77.0615 213.293 75.5226 211.16C74.0646 209.135 72.7146 207.069 71.3377 205.017C66.7208 198.159 62.3874 191.221 58.7021 184.147C57.4871 181.825 56.2721 179.503 55.1652 177.154C54.1257 174.94 53.1807 172.726 52.2223 170.512C53.1942 168.271 54.1527 166.044 55.2192 163.803C56.2721 161.576 57.4466 159.362 58.6076 157.148C62.4009 149.912 66.8828 142.73 71.7022 135.616C73.0926 133.55 74.4021 131.485 75.887 129.447C77.4125 127.354 79.0864 125.302 80.6929 123.237C80.9089 125.653 81.1924 128.11 81.6784 130.635C82.1238 132.97 82.6638 135.332 83.3388 137.749C85.2827 144.647 88.1987 151.829 91.8706 159.146C92.8155 161.022 93.7605 162.872 94.8 164.761C95.7854 166.516 96.8654 168.285 97.9454 170.053C100.564 174.4 103.453 178.734 106.599 183.08C107.773 184.7 108.894 186.32 110.149 187.94C111.35 189.493 112.673 191.018 113.942 192.557C118.87 198.591 124.121 204.572 129.953 210.35C135.812 216.154 141.833 221.325 147.88 226.185C149.406 227.413 150.931 228.696 152.47 229.856C154.104 231.085 155.724 232.246 157.371 233.407C161.771 236.539 166.159 239.374 170.533 241.966C172.328 243.032 174.124 244.085 175.905 245.044C177.809 246.069 179.685 247.041 181.562 247.959C189.203 251.726 196.654 254.615 203.755 256.518C206.172 257.166 208.52 257.679 210.842 258.098C213.421 258.57 215.891 258.827 218.348 259.016C216.283 260.636 214.244 262.39 212.152 263.916C210.1 265.414 208.021 266.697 205.956 268.114C198.49 273.217 190.944 277.929 183.344 281.897C181.184 283.031 179.024 284.314 176.85 285.353C174.555 286.447 172.261 287.284 169.966 288.269C167.738 287.311 165.497 286.366 163.283 285.313C161.069 284.26 158.869 283.099 156.669 281.965C149.163 278.05 141.792 273.433 134.516 268.479C132.45 267.061 130.371 265.752 128.346 264.267L128.319 264.294ZM100.281 100.854C100.281 100.854 100.375 100.773 100.416 100.719C103.629 97.601 108.435 96.0621 114.023 95.4681C115.319 95.3331 116.399 94.9146 117.803 94.9146C119.207 94.9146 120.868 95.1576 122.407 95.3061C129.44 95.9676 137.432 98.0195 146.152 101.705C150.553 98.3975 154.968 95.3061 159.409 92.4847C151.768 88.7183 144.316 85.8024 137.216 83.872C134.772 83.2105 132.396 82.711 130.047 82.279C127.469 81.793 124.999 81.5365 122.555 81.334C124.648 79.7006 126.713 78.0266 128.832 76.4742C130.871 74.9892 132.95 73.6663 135.015 72.2623C142.116 67.4565 149.298 62.9611 156.628 59.1407C158.828 57.9932 161.029 56.8458 163.243 55.7928C165.457 54.7399 167.684 53.7949 169.912 52.8499C172.207 53.8354 174.501 54.6724 176.81 55.7658C178.97 56.8053 181.13 58.0877 183.303 59.2217C190.728 63.0961 198.112 67.686 205.402 72.6538C207.468 74.0578 209.56 75.3672 211.612 76.8522C213.718 78.3911 215.77 80.1056 217.849 81.739C215.405 81.928 212.921 82.1845 210.343 82.657C207.994 83.089 205.632 83.602 203.202 84.25C196.276 86.1129 189.027 88.9343 181.589 92.5522C179.685 93.4837 177.782 94.4286 175.865 95.4681C174.083 96.4401 172.288 97.5065 170.492 98.546C166.105 101.124 161.704 103.959 157.29 107.091C155.643 108.252 153.996 109.386 152.349 110.628C150.81 111.803 149.271 113.099 147.732 114.327C141.59 119.227 135.474 124.479 129.521 130.378C123.892 135.953 118.789 141.745 113.996 147.59C116.156 151.883 118.64 156.257 121.502 160.698C126.875 153.786 132.882 146.956 139.484 140.422C146.652 133.321 153.861 127.152 160.975 121.752C162.527 120.577 164.053 119.497 165.592 118.404C167.212 117.243 168.818 116.149 170.425 115.083C172.031 116.149 173.638 117.229 175.257 118.404C176.783 119.497 178.308 120.604 179.834 121.779C186.8 127.098 193.846 133.105 200.839 140.03C207.549 146.672 213.637 153.611 219.077 160.617C221.939 156.162 224.423 151.775 226.569 147.469C221.71 141.529 216.539 135.656 210.815 129.987C205.051 124.29 199.138 119.187 193.198 114.408C191.632 113.153 190.08 111.857 188.528 110.669C186.894 109.44 185.274 108.266 183.641 107.105C185.531 106.092 187.34 105.269 189.176 104.391C191.052 103.5 192.955 102.542 194.778 101.786C203.31 98.2355 211.099 96.2916 217.984 95.6571C219.509 95.5221 221.102 95.2791 222.52 95.2791C223.937 95.2791 225.017 95.6976 226.326 95.8326C231.915 96.4266 236.721 97.979 239.92 101.084C240.015 101.178 240.11 101.286 240.204 101.381C243.363 104.607 244.942 109.346 245.455 115.016C245.563 116.136 245.941 117 245.941 118.215C245.941 119.821 245.658 121.576 245.469 123.277C244.753 130.257 242.688 137.87 239.246 145.957C238.476 147.765 237.545 149.601 236.654 151.437C235.763 153.273 234.926 155.096 233.913 156.945C231.551 161.279 228.851 165.666 225.881 170.067C224.841 171.606 223.694 173.145 222.587 174.684C221.426 176.29 220.36 177.91 219.118 179.517C213.583 186.725 207.319 193.84 200.434 200.657C193.563 207.461 186.651 213.36 179.82 218.611C178.295 219.786 176.783 220.92 175.271 222.013C173.651 223.188 172.045 224.254 170.438 225.334C168.832 224.268 167.239 223.188 165.619 222.027C164.093 220.933 162.568 219.826 161.029 218.665C154.009 213.32 146.922 207.272 139.862 200.279C133.085 193.57 126.929 186.563 121.448 179.476C120.22 177.883 119.14 176.29 117.992 174.697C116.872 173.158 115.738 171.619 114.698 170.08C111.728 165.706 108.988 161.346 106.612 157.04C105.586 155.177 104.776 153.368 103.872 151.532C102.967 149.696 101.995 147.847 101.226 146.051C97.6484 137.776 95.5424 129.96 94.8135 122.832C94.638 121.158 94.3545 119.43 94.3545 117.837C94.3545 116.608 94.7325 115.717 94.8405 114.597C95.3669 108.927 96.9464 104.189 100.119 100.962C100.159 100.922 100.2 100.868 100.24 100.827L100.281 100.854ZM39.8566 104.391C40.4101 98.5055 41.5981 92.9572 43.218 87.6924C46.5119 76.9602 51.8443 67.551 59.404 59.9777C66.9098 52.4719 76.157 47.3421 86.4437 44.0617C91.6276 42.4147 97.1084 41.3348 102.819 40.7138C106.315 40.3358 109.784 39.8768 113.443 39.8768C120.598 39.8768 128.09 40.8353 135.704 42.2527C141.819 38.7023 148.029 35.5164 154.279 32.6275C148.083 30.8321 141.954 29.4011 135.893 28.3752C131.168 27.5787 126.524 27.0522 121.934 26.7417C119.005 26.5392 116.021 26.1747 113.173 26.1747C111.067 26.1747 109.11 26.5527 107.058 26.6607C111.634 24.6493 116.305 22.8538 121.097 21.2744C125.809 19.7219 130.614 18.399 135.515 17.292C146.692 14.7541 158.262 13.3096 170.195 13.3096C182.129 13.3096 193.279 14.7001 204.282 17.1435C209.128 18.2235 213.907 19.5059 218.578 21.0179C223.465 22.6108 228.243 24.4198 232.914 26.4717C230.862 26.3637 228.945 25.9722 226.839 25.9722C223.883 25.9722 220.792 26.2692 217.741 26.4852C213.178 26.8092 208.52 27.3897 203.769 28.1997C201.649 28.5642 199.597 28.7666 197.451 29.2256C193.32 30.1166 189.162 31.2371 185.004 32.4655C182.399 33.235 179.793 34.1665 177.188 35.0575C174.623 35.9484 172.058 36.7449 169.507 37.7574C163.432 40.1603 157.425 43.0222 151.431 46.1001C149.217 47.2341 147.003 48.3815 144.816 49.61C142.453 50.933 140.105 52.3234 137.769 53.7409C129.548 58.7222 121.462 64.2976 113.618 70.4264C110.945 72.5053 108.367 74.7462 105.762 76.9602C101.01 80.983 96.3389 85.1949 91.8031 89.6498C91.3441 90.0548 90.8041 90.3383 90.3586 90.7837C89.8726 91.2697 89.5216 91.8637 89.0761 92.3767C84.5133 97.0071 80.2609 101.759 76.1975 106.578C73.9971 109.17 71.7832 111.762 69.7312 114.408C63.6024 122.305 58.0676 130.419 53.1537 138.599C51.8443 140.786 50.4808 142.946 49.2523 145.147C47.9294 147.536 46.7549 149.939 45.54 152.342C44.7435 149.723 44.1225 147.104 43.488 144.485C43.137 143.068 42.678 141.637 42.3676 140.219C42.0976 138.937 41.9626 137.708 41.7196 136.439C39.6001 125.086 38.9252 114.327 39.8701 104.418L39.8566 104.391ZM217.66 320.101C212.989 321.586 208.223 322.828 203.377 323.868C192.658 326.19 181.562 327.485 170.168 327.485C158.775 327.485 147.205 326.122 136.271 323.706C131.384 322.626 126.591 321.343 121.88 319.818C117.115 318.279 112.444 316.524 107.881 314.553C109.663 314.634 111.337 314.971 113.132 314.971C116.251 314.971 119.491 314.593 122.69 314.364C127.28 314.026 131.924 313.459 136.635 312.622C142.44 311.61 148.312 310.247 154.239 308.519C147.988 305.616 141.792 302.444 135.69 298.893C128.076 300.311 120.584 301.269 113.429 301.269C110.068 301.269 106.909 300.824 103.683 300.5C98.0129 299.946 92.586 298.92 87.4292 297.354C76.751 294.101 67.1393 288.917 59.377 281.168C51.4933 273.285 46.1204 263.538 42.894 252.63C41.3551 247.433 40.2886 241.993 39.7621 236.296C38.8577 226.36 39.5191 215.749 41.5711 204.774C37.9802 198.591 34.7943 192.328 31.8784 186.01C30.1369 191.963 28.8815 197.835 27.869 203.64C27.032 208.365 26.4515 213.009 26.1141 217.599C25.7226 222.621 25.6551 227.535 25.8576 232.354C23.9001 227.791 22.1587 223.12 20.6332 218.355C19.1483 213.724 17.8928 208.986 16.8398 204.18C14.4369 193.286 13.087 182 13.087 170.391C13.087 158.781 14.3694 147.955 16.6778 137.263C17.7173 132.416 18.9593 127.651 20.4442 122.98C21.9562 118.201 23.6706 113.517 25.6281 108.954C25.4256 113.76 25.5201 118.701 25.9116 123.777C26.2761 128.353 26.87 133.01 27.7205 137.776C28.0445 139.571 28.2335 141.326 28.625 143.149C29.516 147.266 30.6229 151.41 31.8514 155.528C32.6074 158.106 33.5253 160.685 34.4163 163.25C35.2938 165.787 36.0903 168.325 37.0892 170.85C39.4787 176.938 42.3271 182.959 45.405 188.953C46.5659 191.234 47.7539 193.502 49.0094 195.757C50.3593 198.173 51.7768 200.562 53.2212 202.952C58.0271 210.89 63.4269 218.679 69.2992 226.252C71.3647 228.925 73.5651 231.517 75.7655 234.122C79.8424 238.969 84.1083 243.721 88.6171 248.324C89.2111 248.931 89.7511 249.579 90.3586 250.173C90.6016 250.416 90.8716 250.646 91.1281 250.902C95.6909 255.425 100.402 259.664 105.195 263.754C107.8 265.968 110.392 268.209 113.051 270.301C121.057 276.592 129.318 282.316 137.729 287.405C140.078 288.823 142.413 290.213 144.775 291.523C146.976 292.751 149.19 293.912 151.404 295.046C157.384 298.11 163.405 300.972 169.466 303.375C172.018 304.388 174.582 305.184 177.147 306.075C179.753 306.98 182.345 307.911 184.964 308.681C189.108 309.909 193.266 311.043 197.41 311.92C199.26 312.312 201.042 312.487 202.878 312.811C207.616 313.662 212.273 314.269 216.836 314.634C220.198 314.89 223.573 315.201 226.826 315.201C228.594 315.201 230.201 314.85 231.942 314.782C227.298 316.78 222.533 318.562 217.66 320.101ZM323.253 205.071C322.173 209.877 320.891 214.588 319.379 219.219C317.813 223.971 316.058 228.628 314.06 233.177C314.303 228.372 314.249 223.458 313.885 218.449C313.561 213.873 313.021 209.229 312.211 204.518C311.171 198.362 309.862 192.139 308.012 185.834C305.11 192.152 301.911 198.429 298.333 204.612C300.48 216.046 301.087 227.049 300.021 237.322C299.44 243.019 298.374 248.499 296.754 253.683C293.487 264.172 288.182 273.528 280.554 281.155C273.116 288.607 263.788 293.804 253.245 297.111C248.088 298.731 242.607 299.798 236.829 300.392C233.522 300.743 230.282 301.202 226.785 301.202C219.563 301.202 211.936 300.311 204.052 298.826C202.797 298.596 201.609 298.488 200.34 298.218C198.855 297.894 197.356 297.422 195.871 297.057C193.279 296.409 190.701 295.802 188.096 295.019C190.485 293.818 192.847 292.603 195.223 291.28C197.478 290.024 199.719 288.782 201.96 287.446C210.545 282.289 219.01 276.43 227.285 269.937C229.958 267.831 232.577 265.617 235.196 263.362C240.015 259.245 244.78 254.966 249.397 250.362C249.451 250.308 249.519 250.254 249.573 250.187C250.329 249.431 251.004 248.634 251.76 247.865C256.296 243.221 260.534 238.456 264.584 233.609C266.785 230.977 268.972 228.358 271.024 225.672C276.774 218.179 282.012 210.539 286.67 202.79C288.101 200.414 289.572 198.051 290.895 195.662C292.177 193.367 293.298 191.059 294.472 188.737C297.537 182.689 300.358 176.628 302.721 170.58C303.72 168.042 304.543 165.531 305.407 162.993C306.284 160.442 307.243 157.877 307.999 155.325C309.875 148.94 311.185 142.649 312.238 136.426C313.034 131.687 313.588 127.017 313.898 122.4C314.236 117.364 314.29 112.424 314.033 107.591C316.031 112.167 317.813 116.838 319.379 121.63C320.905 126.274 322.187 131.026 323.28 135.859C325.791 146.983 327.236 158.511 327.236 170.404C327.236 182.297 325.778 193.921 323.253 205.085V205.071Z" fill="black"/>
<path d="M324.536 100.247C321.877 94.4286 318.88 88.7993 315.599 83.359C310.55 74.9622 304.867 67.0245 298.495 59.6537C293.959 54.4024 289.086 49.4885 283.943 44.8312C275.465 37.1499 266.245 30.3191 256.35 24.4468C251.085 21.3284 245.671 18.4665 240.069 15.9285C218.726 6.22234 195.102 0.6875 170.182 0.6875C145.261 0.6875 121.313 6.31683 99.8623 16.131C94.368 18.642 89.0491 21.4634 83.8923 24.5278C74.9151 29.8601 66.4643 35.9619 58.6481 42.8062C52.1818 48.4626 46.1069 54.5374 40.5586 61.0981C34.2948 68.5229 28.733 76.5417 23.7921 84.9654C20.6197 90.3788 17.7038 95.9271 15.1389 101.691C5.77017 122.724 0.464844 145.943 0.464844 170.404C0.464844 194.866 5.87817 218.476 15.3954 239.657C17.9063 245.26 20.7412 250.646 23.8191 255.911C28.598 264.078 33.9438 271.867 39.9916 279.103C46.5929 287 53.8827 294.304 61.7935 300.891C68.9887 306.872 76.751 312.15 84.8643 316.902C90.0346 319.926 95.3534 322.707 100.834 325.177C122.042 334.721 145.464 340.148 170.182 340.148C194.899 340.148 217.957 334.816 239.016 325.42C244.591 322.923 249.991 320.115 255.243 317.064C264.247 311.812 272.738 305.805 280.595 299.055C287.277 293.318 293.514 287.081 299.224 280.385C305.407 273.136 310.915 265.333 315.829 257.112C319.028 251.753 321.958 246.232 324.576 240.521C334.337 219.124 339.912 195.433 339.912 170.418C339.912 145.403 334.323 121.684 324.563 100.274L324.536 100.247ZM254.365 44.3452C264.449 47.6796 273.372 52.7824 280.568 59.9777C288.047 67.4565 293.311 76.5822 296.605 86.8284C298.266 92.0392 299.346 97.574 299.967 103.311C301.101 113.733 300.52 124.897 298.333 136.52C297.834 139.207 297.28 141.907 296.592 144.647C295.957 147.212 295.282 149.804 294.486 152.396C292.663 158.403 290.382 164.464 287.763 170.553C286.805 172.767 285.86 174.967 284.82 177.181C283.713 179.503 282.498 181.825 281.27 184.16C277.679 191.018 273.44 197.822 268.918 204.572C267.554 206.61 266.231 208.635 264.787 210.66C263.261 212.779 261.641 214.872 260.021 216.978C259.805 214.534 259.508 212.064 259.009 209.499C258.55 207.15 258.037 204.774 257.348 202.344C255.391 195.46 252.462 188.305 248.776 181.001C245.914 185.402 242.796 189.79 239.448 194.164C243.039 202.425 245.131 210.215 245.887 217.342C246.063 219.07 246.346 220.839 246.346 222.459C246.346 223.674 245.968 224.551 245.86 225.672C245.334 231.314 243.768 236.026 240.623 239.252C240.515 239.374 240.407 239.495 240.285 239.617C237.113 242.681 232.347 244.207 226.826 244.814C225.489 244.963 224.383 245.381 222.911 245.381C221.534 245.381 219.982 245.138 218.51 245.017C211.463 244.382 203.458 242.344 194.697 238.672C192.888 237.916 190.998 236.971 189.122 236.08C187.299 235.202 185.49 234.338 183.627 233.339C185.247 232.178 186.854 230.99 188.474 229.748C190.026 228.561 191.565 227.292 193.117 226.036C198.949 221.325 204.754 216.316 210.424 210.714C216.337 204.855 221.669 198.78 226.664 192.625C227.919 191.086 229.256 189.56 230.444 188.008C231.699 186.374 232.82 184.727 233.994 183.094C237.14 178.734 240.001 174.373 242.62 170.026C243.687 168.258 244.78 166.489 245.766 164.734C246.792 162.858 247.696 161.022 248.628 159.173C252.205 152.018 255.067 144.998 256.97 138.248C257.659 135.818 258.172 133.456 258.631 131.107C259.13 128.556 259.4 126.112 259.63 123.682C261.25 125.775 262.897 127.84 264.422 129.96C265.894 131.998 267.23 134.063 268.607 136.115C273.251 143.014 277.584 149.966 281.256 156.972C283.524 150.681 285.347 144.458 286.683 138.356C281.918 130.432 276.545 122.602 270.632 114.948C268.58 112.289 266.38 109.683 264.179 107.064C260.116 102.231 255.877 97.466 251.328 92.8357C250.734 92.2282 250.18 91.5802 249.573 90.9727C249.316 90.7162 249.046 90.4868 248.776 90.2303C244.2 85.6944 239.489 81.4555 234.71 77.3922C232.104 75.1647 229.485 72.9373 226.826 70.8449C218.699 64.5 210.383 58.7762 201.96 53.7139C199.719 52.3639 197.478 51.122 195.223 49.88C192.847 48.557 190.472 47.3556 188.096 46.1406C190.688 45.3577 193.279 44.7502 195.871 44.1022C197.356 43.7377 198.855 43.2517 200.326 42.9412C201.595 42.6712 202.797 42.5632 204.052 42.3337C211.895 40.8623 219.509 39.9848 226.704 39.9848C230.552 39.9848 234.143 40.4573 237.774 40.8758C243.592 41.5373 249.141 42.6442 254.325 44.3587L254.365 44.3452ZM128.319 264.294C126.2 262.755 124.162 261.041 122.069 259.407C124.513 259.218 126.983 258.962 129.548 258.489C131.897 258.071 134.259 257.544 136.689 256.896C143.979 254.939 151.633 251.955 159.476 248.054C155.062 245.219 150.661 242.128 146.274 238.82C137.324 242.641 129.129 244.787 121.948 245.449C120.436 245.584 118.843 245.827 117.425 245.827C116.008 245.827 114.901 245.408 113.578 245.26C108.016 244.666 103.21 243.113 100.024 240.008C99.9298 239.914 99.8353 239.806 99.7408 239.711C96.5954 236.485 95.0159 231.76 94.4895 226.117C94.3815 224.983 94.0035 224.106 94.0035 222.877C94.0035 221.271 94.287 219.516 94.4625 217.828C95.2184 210.539 97.3784 202.533 101.104 194.042C97.7564 189.695 94.6515 185.321 91.7895 180.947C87.9692 188.453 84.9722 195.811 82.9743 202.871C82.2858 205.301 81.7594 207.677 81.3139 210.026C80.8144 212.564 80.5309 215.02 80.3149 217.45C78.6949 215.358 77.0615 213.293 75.5226 211.16C74.0646 209.135 72.7146 207.069 71.3377 205.017C66.7208 198.159 62.3874 191.221 58.7021 184.147C57.4871 181.825 56.2721 179.503 55.1652 177.154C54.1257 174.94 53.1807 172.726 52.2223 170.512C53.1942 168.271 54.1527 166.044 55.2192 163.803C56.2721 161.576 57.4466 159.362 58.6076 157.148C62.4009 149.912 66.8828 142.73 71.7022 135.616C73.0926 133.55 74.4021 131.485 75.887 129.447C77.4125 127.354 79.0864 125.302 80.6929 123.237C80.9089 125.653 81.1924 128.11 81.6784 130.635C82.1238 132.97 82.6638 135.332 83.3388 137.749C85.2827 144.647 88.1987 151.829 91.8706 159.146C92.8155 161.022 93.7605 162.872 94.8 164.761C95.7854 166.516 96.8654 168.285 97.9454 170.053C100.564 174.4 103.453 178.734 106.599 183.08C107.773 184.7 108.894 186.32 110.149 187.94C111.35 189.493 112.673 191.018 113.942 192.557C118.87 198.591 124.121 204.572 129.953 210.35C135.812 216.154 141.833 221.325 147.88 226.185C149.406 227.413 150.931 228.696 152.47 229.856C154.104 231.085 155.724 232.246 157.371 233.407C161.771 236.539 166.159 239.374 170.533 241.966C172.328 243.032 174.124 244.085 175.905 245.044C177.809 246.069 179.685 247.041 181.562 247.959C189.203 251.726 196.654 254.615 203.755 256.518C206.172 257.166 208.52 257.679 210.842 258.098C213.421 258.57 215.891 258.827 218.348 259.016C216.283 260.636 214.244 262.39 212.152 263.916C210.1 265.414 208.021 266.697 205.956 268.114C198.49 273.217 190.944 277.929 183.344 281.897C181.184 283.031 179.024 284.314 176.85 285.353C174.555 286.447 172.261 287.284 169.966 288.269C167.738 287.311 165.497 286.366 163.283 285.313C161.069 284.26 158.869 283.099 156.669 281.965C149.163 278.05 141.792 273.433 134.516 268.479C132.45 267.061 130.371 265.752 128.346 264.267L128.319 264.294ZM100.281 100.854C100.281 100.854 100.375 100.773 100.416 100.719C103.629 97.601 108.435 96.0621 114.023 95.4681C115.319 95.3331 116.399 94.9146 117.803 94.9146C119.207 94.9146 120.868 95.1576 122.407 95.3061C129.44 95.9676 137.432 98.0195 146.152 101.705C150.553 98.3975 154.968 95.3061 159.409 92.4847C151.768 88.7183 144.316 85.8024 137.216 83.872C134.772 83.2105 132.396 82.711 130.047 82.279C127.469 81.793 124.999 81.5365 122.555 81.334C124.648 79.7006 126.713 78.0266 128.832 76.4742C130.871 74.9892 132.95 73.6663 135.015 72.2623C142.116 67.4565 149.298 62.9611 156.628 59.1407C158.828 57.9932 161.029 56.8458 163.243 55.7928C165.457 54.7399 167.684 53.7949 169.912 52.8499C172.207 53.8354 174.501 54.6724 176.81 55.7658C178.97 56.8053 181.13 58.0877 183.303 59.2217C190.728 63.0961 198.112 67.686 205.402 72.6538C207.468 74.0578 209.56 75.3672 211.612 76.8522C213.718 78.3911 215.77 80.1056 217.849 81.739C215.405 81.928 212.921 82.1845 210.343 82.657C207.994 83.089 205.632 83.602 203.202 84.25C196.276 86.1129 189.027 88.9343 181.589 92.5522C179.685 93.4837 177.782 94.4286 175.865 95.4681C174.083 96.4401 172.288 97.5065 170.492 98.546C166.105 101.124 161.704 103.959 157.29 107.091C155.643 108.252 153.996 109.386 152.349 110.628C150.81 111.803 149.271 113.099 147.732 114.327C141.59 119.227 135.474 124.479 129.521 130.378C123.892 135.953 118.789 141.745 113.996 147.59C116.156 151.883 118.64 156.257 121.502 160.698C126.875 153.786 132.882 146.956 139.484 140.422C146.652 133.321 153.861 127.152 160.975 121.752C162.527 120.577 164.053 119.497 165.592 118.404C167.212 117.243 168.818 116.149 170.425 115.083C172.031 116.149 173.638 117.229 175.257 118.404C176.783 119.497 178.308 120.604 179.834 121.779C186.8 127.098 193.846 133.105 200.839 140.03C207.549 146.672 213.637 153.611 219.077 160.617C221.939 156.162 224.423 151.775 226.569 147.469C221.71 141.529 216.539 135.656 210.815 129.987C205.051 124.29 199.138 119.187 193.198 114.408C191.632 113.153 190.08 111.857 188.528 110.669C186.894 109.44 185.274 108.266 183.641 107.105C185.531 106.092 187.34 105.269 189.176 104.391C191.052 103.5 192.955 102.542 194.778 101.786C203.31 98.2355 211.099 96.2916 217.984 95.6571C219.509 95.5221 221.102 95.2791 222.52 95.2791C223.937 95.2791 225.017 95.6976 226.326 95.8326C231.915 96.4266 236.721 97.979 239.92 101.084C240.015 101.178 240.11 101.286 240.204 101.381C243.363 104.607 244.942 109.346 245.455 115.016C245.563 116.136 245.941 117 245.941 118.215C245.941 119.821 245.658 121.576 245.469 123.277C244.753 130.257 242.688 137.87 239.246 145.957C238.476 147.765 237.545 149.601 236.654 151.437C235.763 153.273 234.926 155.096 233.913 156.945C231.551 161.279 228.851 165.666 225.881 170.067C224.841 171.606 223.694 173.145 222.587 174.684C221.426 176.29 220.36 177.91 219.118 179.517C213.583 186.725 207.319 193.84 200.434 200.657C193.563 207.461 186.651 213.36 179.82 218.611C178.295 219.786 176.783 220.92 175.271 222.013C173.651 223.188 172.045 224.254 170.438 225.334C168.832 224.268 167.239 223.188 165.619 222.027C164.093 220.933 162.568 219.826 161.029 218.665C154.009 213.32 146.922 207.272 139.862 200.279C133.085 193.57 126.929 186.563 121.448 179.476C120.22 177.883 119.14 176.29 117.992 174.697C116.872 173.158 115.738 171.619 114.698 170.08C111.728 165.706 108.988 161.346 106.612 157.04C105.586 155.177 104.776 153.368 103.872 151.532C102.967 149.696 101.995 147.847 101.226 146.051C97.6484 137.776 95.5424 129.96 94.8135 122.832C94.638 121.158 94.3545 119.43 94.3545 117.837C94.3545 116.608 94.7325 115.717 94.8405 114.597C95.3669 108.927 96.9464 104.189 100.119 100.962C100.159 100.922 100.2 100.868 100.24 100.827L100.281 100.854ZM39.8566 104.391C40.4101 98.5055 41.5981 92.9572 43.218 87.6924C46.5119 76.9602 51.8443 67.551 59.404 59.9777C66.9098 52.4719 76.157 47.3421 86.4437 44.0617C91.6276 42.4147 97.1084 41.3348 102.819 40.7138C106.315 40.3358 109.784 39.8768 113.443 39.8768C120.598 39.8768 128.09 40.8353 135.704 42.2527C141.819 38.7023 148.029 35.5164 154.279 32.6275C148.083 30.8321 141.954 29.4011 135.893 28.3752C131.168 27.5787 126.524 27.0522 121.934 26.7417C119.005 26.5392 116.021 26.1747 113.173 26.1747C111.067 26.1747 109.11 26.5527 107.058 26.6607C111.634 24.6493 116.305 22.8538 121.097 21.2744C125.809 19.7219 130.614 18.399 135.515 17.292C146.692 14.7541 158.262 13.3096 170.195 13.3096C182.129 13.3096 193.279 14.7001 204.282 17.1435C209.128 18.2235 213.907 19.5059 218.578 21.0179C223.465 22.6108 228.243 24.4198 232.914 26.4717C230.862 26.3637 228.945 25.9722 226.839 25.9722C223.883 25.9722 220.792 26.2692 217.741 26.4852C213.178 26.8092 208.52 27.3897 203.769 28.1997C201.649 28.5642 199.597 28.7666 197.451 29.2256C193.32 30.1166 189.162 31.2371 185.004 32.4655C182.399 33.235 179.793 34.1665 177.188 35.0575C174.623 35.9484 172.058 36.7449 169.507 37.7574C163.432 40.1603 157.425 43.0222 151.431 46.1001C149.217 47.2341 147.003 48.3815 144.816 49.61C142.453 50.933 140.105 52.3234 137.769 53.7409C129.548 58.7222 121.462 64.2976 113.618 70.4264C110.945 72.5053 108.367 74.7462 105.762 76.9602C101.01 80.983 96.3389 85.1949 91.8031 89.6498C91.3441 90.0548 90.8041 90.3383 90.3586 90.7837C89.8726 91.2697 89.5216 91.8637 89.0761 92.3767C84.5133 97.0071 80.2609 101.759 76.1975 106.578C73.9971 109.17 71.7832 111.762 69.7312 114.408C63.6024 122.305 58.0676 130.419 53.1537 138.599C51.8443 140.786 50.4808 142.946 49.2523 145.147C47.9294 147.536 46.7549 149.939 45.54 152.342C44.7435 149.723 44.1225 147.104 43.488 144.485C43.137 143.068 42.678 141.637 42.3676 140.219C42.0976 138.937 41.9626 137.708 41.7196 136.439C39.6001 125.086 38.9252 114.327 39.8701 104.418L39.8566 104.391ZM217.66 320.101C212.989 321.586 208.223 322.828 203.377 323.868C192.658 326.19 181.562 327.485 170.168 327.485C158.775 327.485 147.205 326.122 136.271 323.706C131.384 322.626 126.591 321.343 121.88 319.818C117.115 318.279 112.444 316.524 107.881 314.553C109.663 314.634 111.337 314.971 113.132 314.971C116.251 314.971 119.491 314.593 122.69 314.364C127.28 314.026 131.924 313.459 136.635 312.622C142.44 311.61 148.312 310.247 154.239 308.519C147.988 305.616 141.792 302.444 135.69 298.893C128.076 300.311 120.584 301.269 113.429 301.269C110.068 301.269 106.909 300.824 103.683 300.5C98.0129 299.946 92.586 298.92 87.4292 297.354C76.751 294.101 67.1393 288.917 59.377 281.168C51.4933 273.285 46.1204 263.538 42.894 252.63C41.3551 247.433 40.2886 241.993 39.7621 236.296C38.8577 226.36 39.5191 215.749 41.5711 204.774C37.9802 198.591 34.7943 192.328 31.8784 186.01C30.1369 191.963 28.8815 197.835 27.869 203.64C27.032 208.365 26.4515 213.009 26.1141 217.599C25.7226 222.621 25.6551 227.535 25.8576 232.354C23.9001 227.791 22.1587 223.12 20.6332 218.355C19.1483 213.724 17.8928 208.986 16.8398 204.18C14.4369 193.286 13.087 182 13.087 170.391C13.087 158.781 14.3694 147.955 16.6778 137.263C17.7173 132.416 18.9593 127.651 20.4442 122.98C21.9562 118.201 23.6706 113.517 25.6281 108.954C25.4256 113.76 25.5201 118.701 25.9116 123.777C26.2761 128.353 26.87 133.01 27.7205 137.776C28.0445 139.571 28.2335 141.326 28.625 143.149C29.516 147.266 30.6229 151.41 31.8514 155.528C32.6074 158.106 33.5253 160.685 34.4163 163.25C35.2938 165.787 36.0903 168.325 37.0892 170.85C39.4787 176.938 42.3271 182.959 45.405 188.953C46.5659 191.234 47.7539 193.502 49.0094 195.757C50.3593 198.173 51.7768 200.562 53.2212 202.952C58.0271 210.89 63.4269 218.679 69.2992 226.252C71.3647 228.925 73.5651 231.517 75.7655 234.122C79.8424 238.969 84.1083 243.721 88.6171 248.324C89.2111 248.931 89.7511 249.579 90.3586 250.173C90.6016 250.416 90.8716 250.646 91.1281 250.902C95.6909 255.425 100.402 259.664 105.195 263.754C107.8 265.968 110.392 268.209 113.051 270.301C121.057 276.592 129.318 282.316 137.729 287.405C140.078 288.823 142.413 290.213 144.775 291.523C146.976 292.751 149.19 293.912 151.404 295.046C157.384 298.11 163.405 300.972 169.466 303.375C172.018 304.388 174.582 305.184 177.147 306.075C179.753 306.98 182.345 307.911 184.964 308.681C189.108 309.909 193.266 311.043 197.41 311.92C199.26 312.312 201.042 312.487 202.878 312.811C207.616 313.662 212.273 314.269 216.836 314.634C220.198 314.89 223.573 315.201 226.826 315.201C228.594 315.201 230.201 314.85 231.942 314.782C227.298 316.78 222.533 318.562 217.66 320.101ZM323.253 205.071C322.173 209.877 320.891 214.588 319.379 219.219C317.813 223.971 316.058 228.628 314.06 233.177C314.303 228.372 314.249 223.458 313.885 218.449C313.561 213.873 313.021 209.229 312.211 204.518C311.171 198.362 309.862 192.139 308.012 185.834C305.11 192.152 301.911 198.429 298.333 204.612C300.48 216.046 301.087 227.049 300.021 237.322C299.44 243.019 298.374 248.499 296.754 253.683C293.487 264.172 288.182 273.528 280.554 281.155C273.116 288.607 263.788 293.804 253.245 297.111C248.088 298.731 242.607 299.798 236.829 300.392C233.522 300.743 230.282 301.202 226.785 301.202C219.563 301.202 211.936 300.311 204.052 298.826C202.797 298.596 201.609 298.488 200.34 298.218C198.855 297.894 197.356 297.422 195.871 297.057C193.279 296.409 190.701 295.802 188.096 295.019C190.485 293.818 192.847 292.603 195.223 291.28C197.478 290.024 199.719 288.782 201.96 287.446C210.545 282.289 219.01 276.43 227.285 269.937C229.958 267.831 232.577 265.617 235.196 263.362C240.015 259.245 244.78 254.966 249.397 250.362C249.451 250.308 249.519 250.254 249.573 250.187C250.329 249.431 251.004 248.634 251.76 247.865C256.296 243.221 260.534 238.456 264.584 233.609C266.785 230.977 268.972 228.358 271.024 225.672C276.774 218.179 282.012 210.539 286.67 202.79C288.101 200.414 289.572 198.051 290.895 195.662C292.177 193.367 293.298 191.059 294.472 188.737C297.537 182.689 300.358 176.628 302.721 170.58C303.72 168.042 304.543 165.531 305.407 162.993C306.284 160.442 307.243 157.877 307.999 155.325C309.875 148.94 311.185 142.649 312.238 136.426C313.034 131.687 313.588 127.017 313.898 122.4C314.236 117.364 314.29 112.424 314.033 107.591C316.031 112.167 317.813 116.838 319.379 121.63C320.905 126.274 322.187 131.026 323.28 135.859C325.791 146.983 327.236 158.511 327.236 170.404C327.236 182.297 325.778 193.921 323.253 205.085V205.071Z" fill="black"/>
<path d="M472.684 189.254C473.093 210.296 483.92 225.617 515.381 225.617C543.368 225.617 551.948 216.016 551.948 200.286C551.948 185.985 544.39 178.835 527.229 175.975L495.156 171.072C471.663 167.599 460.836 155.955 460.836 135.526C460.836 113.667 477.179 96.3026 512.316 96.3026C548.067 96.3026 565.636 114.28 567.474 140.429H550.927C549.088 122.043 537.853 109.581 512.316 109.581C488.21 109.581 477.996 120 477.996 135.117C477.996 145.741 482.899 154.116 498.425 156.568L532.337 161.675C556.443 165.557 569.109 176.18 569.109 198.038C569.109 223.983 553.378 238.896 515.381 238.896C471.459 238.896 456.137 216.016 456.137 189.254H472.684ZM651.841 239.305C604.65 239.305 584.017 208.866 584.017 167.804C584.017 127.355 604.65 96.3026 651.841 96.3026C699.032 96.3026 719.461 127.559 719.461 167.804C719.461 208.661 699.032 239.305 651.841 239.305ZM601.79 167.804C601.79 206.006 617.112 225.209 651.841 225.209C686.57 225.209 701.687 206.006 701.687 167.804C701.687 129.602 686.57 110.399 651.841 110.399C617.112 110.399 601.79 129.602 601.79 167.804ZM804.469 239.305C757.686 239.305 736.645 209.07 736.645 167.804C736.645 126.946 758.095 96.3026 804.877 96.3026C846.756 96.3026 865.755 116.936 869.228 150.643H851.864C849.004 124.086 834.091 110.399 804.673 110.399C770.557 110.399 754.418 129.806 754.418 167.804C754.418 205.801 770.148 225.209 804.264 225.209C835.112 225.209 850.638 209.274 852.272 181.695H869.637C867.594 216.22 848.186 239.305 804.469 239.305ZM893.855 235.832V222.145H922.659V113.667H893.855V99.9798H968.42V113.667H939.615V222.145H968.42V235.832H893.855ZM1024.74 172.707V222.145H1108.91V235.832H1007.79V99.9798H1108.3V113.667H1024.74V159.224H1102.17V172.707H1024.74ZM1171.08 236.036V113.667H1122.05V99.9798H1236.45V113.667H1187.83V236.036H1171.08ZM1237.25 99.9798H1256.66L1287.5 156.159C1290.57 162.084 1293.63 167.804 1296.9 173.524C1299.96 167.804 1303.23 162.084 1306.3 156.159L1337.35 99.9798H1356.35L1305.28 188.233V235.832H1288.32V188.233L1237.25 99.9798ZM1476.72 99.9798C1505.93 99.9798 1517.78 117.753 1517.78 139.612C1517.78 161.266 1505.93 179.448 1475.9 179.448H1431.57V235.832H1414.41V99.9798H1476.72ZM1431.57 165.761H1472.43C1492.65 165.761 1500.01 155.138 1500.01 139.612C1500.01 123.473 1492.65 113.667 1473.04 113.667H1431.57V165.761ZM1639.42 214.177C1639.42 224.187 1640.85 230.725 1642.08 235.832H1625.53C1624.1 231.338 1623.08 224.596 1623.08 214.79V202.329C1623.08 182.921 1612.66 174.954 1593.86 174.954H1555.66V235.832H1538.71V99.9798H1602.04C1630.02 99.9798 1643.71 113.871 1643.71 135.73C1643.71 153.912 1632.48 166.578 1617.36 170.051C1630.23 173.728 1639.42 179.857 1639.42 199.877V214.177ZM1555.66 162.288H1599.99C1618.99 162.288 1625.94 152.686 1625.94 137.16C1625.94 121.43 1617.97 113.667 1600.2 113.667H1555.66V162.288ZM1727.51 239.305C1680.32 239.305 1659.68 208.866 1659.68 167.804C1659.68 127.355 1680.32 96.3026 1727.51 96.3026C1774.7 96.3026 1795.13 127.559 1795.13 167.804C1795.13 208.661 1774.7 239.305 1727.51 239.305ZM1677.46 167.804C1677.46 206.006 1692.78 225.209 1727.51 225.209C1762.24 225.209 1777.35 206.006 1777.35 167.804C1777.35 129.602 1762.24 110.399 1727.51 110.399C1692.78 110.399 1677.46 129.602 1677.46 167.804ZM1848.04 236.036V113.667H1799.01V99.9798H1913.41V113.667H1864.79V236.036H1848.04ZM1984.68 239.305C1937.49 239.305 1916.86 208.866 1916.86 167.804C1916.86 127.355 1937.49 96.3026 1984.68 96.3026C2031.87 96.3026 2052.3 127.559 2052.3 167.804C2052.3 208.661 2031.87 239.305 1984.68 239.305ZM1934.63 167.804C1934.63 206.006 1949.95 225.209 1984.68 225.209C2019.41 225.209 2034.53 206.006 2034.53 167.804C2034.53 129.602 2019.41 110.399 1984.68 110.399C1949.95 110.399 1934.63 129.602 1934.63 167.804ZM2137.31 239.305C2090.53 239.305 2069.49 209.07 2069.49 167.804C2069.49 126.946 2090.94 96.3026 2137.72 96.3026C2179.6 96.3026 2198.6 116.936 2202.07 150.643H2184.71C2181.85 124.086 2166.93 110.399 2137.52 110.399C2103.4 110.399 2087.26 129.806 2087.26 167.804C2087.26 205.801 2102.99 225.209 2137.11 225.209C2167.95 225.209 2183.48 209.274 2185.12 181.695H2202.48C2200.44 216.22 2181.03 239.305 2137.31 239.305ZM2286.55 239.305C2239.36 239.305 2218.72 208.866 2218.72 167.804C2218.72 127.355 2239.36 96.3026 2286.55 96.3026C2333.74 96.3026 2354.17 127.559 2354.17 167.804C2354.17 208.661 2333.74 239.305 2286.55 239.305ZM2236.5 167.804C2236.5 206.006 2251.82 225.209 2286.55 225.209C2321.28 225.209 2336.39 206.006 2336.39 167.804C2336.39 129.602 2321.28 110.399 2286.55 110.399C2251.82 110.399 2236.5 129.602 2236.5 167.804ZM2376.87 235.832V99.9798H2393.82V222.145H2464.92V235.832H2376.87Z" fill="black"/>
</svg>
