<svg width="506" height="506" viewBox="0 0 506 506" fill="none" xmlns="http://www.w3.org/2000/svg">
<path d="M482.441 148.224C478.483 139.565 474.022 131.187 469.14 123.091C461.626 110.594 453.167 98.7812 443.684 87.8116C436.933 79.9963 429.68 72.6833 422.025 65.752C409.408 54.3204 395.686 44.1545 380.958 35.4151C373.123 30.7741 365.066 26.5149 356.728 22.7378C324.963 8.29263 289.803 0.0554199 252.714 0.0554199C215.625 0.0554199 179.983 8.43325 148.058 23.0392C139.881 26.7761 131.964 30.975 124.29 35.5356C110.929 43.4714 98.3514 52.5525 86.7184 62.7384C77.0946 71.1564 68.0534 80.1972 59.7958 89.9613C50.4733 101.011 42.1956 112.945 34.8421 125.482C30.1206 133.538 25.7809 141.795 21.9635 150.374C8.01997 181.675 0.124023 216.231 0.124023 252.636C0.124023 289.04 8.18071 324.179 22.3452 355.701C26.0822 364.039 30.3015 372.055 34.8823 379.89C41.9947 392.045 49.9509 403.637 58.9519 414.406C68.7767 426.159 79.6261 437.028 91.3997 446.833C102.108 455.733 113.661 463.588 125.736 470.66C133.431 475.16 141.347 479.299 149.504 482.976C181.068 497.18 215.927 505.256 252.714 505.256C289.502 505.256 323.818 497.32 355.161 483.337C363.459 479.621 371.495 475.442 379.311 470.901C392.712 463.086 405.35 454.146 417.043 444.1C426.988 435.562 436.27 426.28 444.769 416.315C453.971 405.526 462.168 393.914 469.482 381.678C474.243 373.702 478.603 365.485 482.501 356.987C497.027 325.143 505.325 289.884 505.325 252.656C505.325 215.428 497.007 180.128 482.481 148.265L482.441 148.224ZM378.005 65.0288C393.013 69.9912 406.294 77.5855 417.003 88.2938C428.133 99.4241 435.969 113.005 440.871 128.254C443.343 136.009 444.95 144.246 445.874 152.785C447.562 168.295 446.698 184.91 443.443 202.208C442.7 206.206 441.876 210.224 440.851 214.303C439.907 218.12 438.902 221.977 437.717 225.835C435.005 234.775 431.609 243.796 427.711 252.857C426.285 256.152 424.878 259.426 423.331 262.721C421.684 266.177 419.876 269.633 418.047 273.108C412.703 283.314 406.394 293.44 399.664 303.485C397.634 306.519 395.665 309.533 393.516 312.546C391.245 315.7 388.834 318.815 386.423 321.949C386.102 318.312 385.66 314.636 384.916 310.818C384.233 307.323 383.47 303.787 382.445 300.17C379.532 289.924 375.172 279.276 369.687 268.407C365.428 274.957 360.787 281.486 355.804 287.995C361.148 300.291 364.262 311.883 365.388 322.491C365.649 325.063 366.071 327.695 366.071 330.106C366.071 331.914 365.508 333.22 365.347 334.887C364.564 343.285 362.233 350.297 357.552 355.098C357.391 355.279 357.23 355.46 357.05 355.641C352.328 360.201 345.236 362.472 337.018 363.376C335.029 363.597 333.382 364.22 331.192 364.22C329.142 364.22 326.832 363.858 324.642 363.677C314.154 362.733 302.24 359.699 289.201 354.234C286.508 353.109 283.695 351.703 280.903 350.377C278.19 349.071 275.498 347.785 272.726 346.299C275.137 344.571 277.527 342.803 279.938 340.955C282.249 339.187 284.539 337.298 286.85 335.43C295.529 328.418 304.169 320.964 312.607 312.627C321.407 303.907 329.343 294.866 336.777 285.705C338.646 283.415 340.635 281.144 342.403 278.834C344.271 276.403 345.939 273.952 347.687 271.521C352.368 265.032 356.628 258.542 360.525 252.073C362.113 249.441 363.74 246.809 365.207 244.198C366.734 241.405 368.08 238.673 369.466 235.92C374.79 225.272 379.05 214.825 381.883 204.78C382.907 201.163 383.671 197.647 384.354 194.152C385.097 190.355 385.499 186.718 385.841 183.102C388.252 186.216 390.703 189.29 392.973 192.444C395.163 195.478 397.152 198.552 399.202 201.605C406.113 211.872 412.562 222.218 418.027 232.646C421.403 223.283 424.115 214.021 426.104 204.94C419.012 193.147 411.015 181.495 402.215 170.103C399.161 166.145 395.886 162.268 392.612 158.37C386.564 151.178 380.255 144.086 373.484 137.195C372.6 136.291 371.777 135.326 370.873 134.422C370.491 134.04 370.089 133.699 369.687 133.317C362.876 126.567 355.864 120.258 348.752 114.211C344.874 110.896 340.976 107.581 337.018 104.467C324.923 95.0242 312.547 86.5057 300.01 78.9717C296.675 76.9627 293.339 75.1143 289.984 73.266C286.448 71.2971 282.912 69.509 279.376 67.7008C283.233 66.5356 287.091 65.6315 290.948 64.6671C293.159 64.1247 295.389 63.4014 297.579 62.9393C299.467 62.5375 301.255 62.3768 303.124 62.0353C314.797 59.8454 326.129 58.5395 336.838 58.5395C342.564 58.5395 347.908 59.2426 353.313 59.8655C361.972 60.8499 370.23 62.4973 377.945 65.0489L378.005 65.0288ZM190.411 392.367C187.256 390.076 184.222 387.525 181.108 385.094C184.745 384.813 188.422 384.431 192.239 383.728C195.735 383.105 199.251 382.321 202.867 381.357C213.717 378.444 225.109 374.004 236.782 368.197C230.212 363.978 223.662 359.378 217.132 354.455C203.812 360.141 191.616 363.336 180.927 364.32C178.677 364.521 176.306 364.883 174.197 364.883C172.087 364.883 170.44 364.26 168.471 364.039C160.193 363.155 153.04 360.844 148.299 356.223C148.158 356.083 148.018 355.922 147.877 355.781C143.196 350.98 140.845 343.948 140.061 335.55C139.901 333.862 139.338 332.557 139.338 330.728C139.338 328.338 139.76 325.726 140.021 323.214C141.146 312.365 144.361 300.452 149.906 287.815C144.923 281.345 140.302 274.836 136.043 268.327C130.357 279.497 125.897 290.446 122.923 300.954C121.899 304.57 121.115 308.106 120.452 311.602C119.709 315.379 119.287 319.036 118.965 322.652C116.554 319.538 114.123 316.464 111.833 313.29C109.663 310.276 107.654 307.202 105.604 304.148C98.7331 293.942 92.2837 283.616 86.7988 273.088C84.9905 269.633 83.1823 266.177 81.5348 262.681C79.9878 259.386 78.5813 256.091 77.1548 252.796C78.6014 249.461 80.0279 246.146 81.6152 242.811C83.1823 239.496 84.9302 236.202 86.6581 232.907C92.3038 222.138 98.9742 211.45 106.147 200.862C108.216 197.788 110.165 194.714 112.375 191.681C114.646 188.567 117.137 185.513 119.528 182.439C119.849 186.035 120.271 189.692 120.995 193.449C121.658 196.924 122.461 200.44 123.466 204.036C126.359 214.303 130.699 224.991 136.164 235.88C137.57 238.673 138.976 241.425 140.523 244.238C141.99 246.85 143.597 249.482 145.205 252.113C149.103 258.583 153.402 265.032 158.083 271.501C159.831 273.912 161.499 276.323 163.367 278.734C165.156 281.044 167.125 283.314 169.013 285.605C176.347 294.585 184.162 303.485 192.842 312.084C201.561 320.723 210.522 328.418 219.523 335.651C221.794 337.479 224.064 339.387 226.354 341.115C228.785 342.943 231.196 344.671 233.648 346.399C240.197 351.06 246.727 355.279 253.237 359.137C255.909 360.724 258.581 362.291 261.233 363.717C264.066 365.244 266.859 366.691 269.652 368.057C281.023 373.662 292.114 377.962 302.682 380.794C306.278 381.759 309.774 382.522 313.23 383.145C317.068 383.848 320.744 384.23 324.401 384.511C321.327 386.922 318.293 389.534 315.179 391.804C312.125 394.034 309.031 395.943 305.957 398.052C294.846 405.647 283.615 412.658 272.304 418.565C269.089 420.253 265.874 422.161 262.64 423.708C259.224 425.335 255.809 426.581 252.393 428.048C249.078 426.621 245.743 425.215 242.448 423.648C239.153 422.081 235.878 420.353 232.603 418.665C221.432 412.839 210.462 405.968 199.633 398.595C196.559 396.485 193.465 394.536 190.451 392.326L190.411 392.367ZM148.681 149.128C148.681 149.128 148.821 149.008 148.881 148.928C153.663 144.287 160.816 141.996 169.134 141.112C171.063 140.911 172.67 140.289 174.759 140.289C176.849 140.289 179.32 140.65 181.611 140.871C192.078 141.856 203.972 144.909 216.952 150.394C223.501 145.472 230.071 140.871 236.681 136.672C225.31 131.067 214.219 126.727 203.651 123.854C200.014 122.87 196.478 122.127 192.982 121.484C189.145 120.76 185.468 120.379 181.832 120.077C184.946 117.646 188.02 115.155 191.174 112.845C194.208 110.635 197.302 108.666 200.376 106.576C210.944 99.4241 221.633 92.7338 232.543 87.0482C235.817 85.3405 239.092 83.6328 242.387 82.0657C245.682 80.4986 248.997 79.0922 252.313 77.6859C255.728 79.1525 259.144 80.3982 262.579 82.0255C265.794 83.5725 269.009 85.4811 272.243 87.1687C283.294 92.9347 294.284 99.7656 305.133 107.159C308.207 109.248 311.321 111.197 314.375 113.407C317.509 115.698 320.563 118.249 323.658 120.68C320.021 120.961 316.324 121.343 312.487 122.046C308.991 122.689 305.475 123.453 301.858 124.417C291.551 127.189 280.762 131.388 269.692 136.773C266.859 138.159 264.026 139.565 261.173 141.112C258.521 142.559 255.849 144.146 253.176 145.693C246.647 149.53 240.097 153.749 233.527 158.41C231.076 160.138 228.625 161.826 226.174 163.674C223.883 165.422 221.593 167.351 219.302 169.179C210.161 176.472 201.059 184.287 192.199 193.067C183.821 201.364 176.226 209.983 169.094 218.682C172.308 225.071 176.005 231.581 180.264 238.191C188.261 227.904 197.202 217.738 207.026 208.014C217.695 197.447 228.424 188.265 239.012 180.229C241.323 178.481 243.593 176.874 245.883 175.246C248.294 173.519 250.685 171.891 253.076 170.304C255.467 171.891 257.858 173.498 260.269 175.246C262.539 176.874 264.81 178.521 267.08 180.269C277.447 188.185 287.935 197.125 298.342 207.432C308.328 217.316 317.389 227.643 325.486 238.07C329.745 231.44 333.442 224.911 336.637 218.502C329.404 209.662 321.709 200.922 313.19 192.484C304.611 184.006 295.811 176.412 286.97 169.3C284.64 167.431 282.329 165.502 280.019 163.734C277.588 161.906 275.177 160.158 272.746 158.43C275.558 156.924 278.251 155.698 280.983 154.392C283.776 153.066 286.609 151.64 289.321 150.515C302.019 145.231 313.612 142.338 323.858 141.394C326.129 141.193 328.5 140.831 330.609 140.831C332.719 140.831 334.326 141.454 336.275 141.655C344.593 142.539 351.745 144.849 356.507 149.47C356.648 149.611 356.788 149.771 356.929 149.912C361.63 154.714 363.981 161.766 364.745 170.204C364.905 171.871 365.468 173.157 365.468 174.965C365.468 177.356 365.046 179.968 364.765 182.499C363.7 192.886 360.626 204.217 355.503 216.251C354.357 218.944 352.971 221.676 351.645 224.408C350.319 227.141 349.073 229.853 347.566 232.605C344.05 239.054 340.032 245.584 335.612 252.134C334.065 254.424 332.357 256.714 330.71 259.005C328.982 261.395 327.394 263.806 325.546 266.197C317.309 276.925 307.986 287.513 297.739 297.659C287.513 307.785 277.226 316.564 267.06 324.38C264.789 326.128 262.539 327.815 260.289 329.443C257.878 331.19 255.487 332.778 253.096 334.385C250.705 332.798 248.334 331.19 245.923 329.463C243.653 327.835 241.383 326.188 239.092 324.46C228.645 316.504 218.097 307.504 207.589 297.097C197.503 287.111 188.341 276.684 180.184 266.137C178.356 263.766 176.748 261.395 175.041 259.025C173.373 256.734 171.685 254.444 170.138 252.154C165.718 245.644 161.64 239.155 158.104 232.746C156.577 229.973 155.371 227.281 154.025 224.549C152.679 221.817 151.232 219.064 150.087 216.392C144.763 204.077 141.628 192.444 140.544 181.836C140.282 179.345 139.86 176.773 139.86 174.403C139.86 172.574 140.423 171.248 140.584 169.581C141.367 161.143 143.718 154.091 148.439 149.289C148.5 149.229 148.56 149.149 148.62 149.088L148.681 149.128ZM58.751 154.392C59.5748 145.633 61.3428 137.375 63.7538 129.54C68.6561 113.568 76.5923 99.5647 87.8435 88.2938C99.0144 77.1234 112.777 69.4889 128.087 64.6069C135.802 62.1558 143.959 60.5485 152.458 59.6244C157.661 59.0618 162.825 58.3788 168.27 58.3788C178.918 58.3788 190.069 59.8052 201.401 61.9147C210.502 56.6309 219.744 51.8894 229.047 47.59C219.825 44.918 210.703 42.7884 201.682 41.2615C194.65 40.0761 187.738 39.2926 180.907 38.8305C176.547 38.5291 172.107 37.9867 167.868 37.9867C164.734 37.9867 161.82 38.5492 158.767 38.7099C165.578 35.7164 172.529 33.0444 179.662 30.6937C186.674 28.3833 193.826 26.4144 201.119 24.767C217.755 20.9899 234.974 18.8402 252.734 18.8402C270.495 18.8402 287.091 20.9096 303.466 24.546C310.678 26.1532 317.791 28.0619 324.742 30.312C332.016 32.6827 339.128 35.3749 346.08 38.4287C343.026 38.268 340.173 37.6853 337.038 37.6853C332.638 37.6853 328.037 38.1273 323.497 38.4488C316.706 38.9309 309.774 39.7948 302.702 41.0003C299.548 41.5427 296.494 41.8441 293.299 42.5272C287.151 43.8532 280.963 45.5207 274.775 47.349C270.897 48.4941 267.02 49.8804 263.142 51.2064C259.324 52.5324 255.507 53.7177 251.71 55.2245C242.669 58.8007 233.728 63.0599 224.807 67.6405C221.512 69.3282 218.217 71.0359 214.962 72.8641C211.446 74.833 207.951 76.9024 204.475 79.0119C192.239 86.4254 180.204 94.7228 168.531 103.844C164.553 106.938 160.715 110.273 156.838 113.568C149.766 119.555 142.814 125.823 136.063 132.453C135.38 133.056 134.576 133.478 133.913 134.141C133.19 134.864 132.668 135.748 132.005 136.512C125.214 143.403 118.885 150.475 112.837 157.647C109.562 161.504 106.267 165.362 103.214 169.3C94.092 181.053 85.8545 193.127 78.5412 205.302C76.5923 208.557 74.563 211.771 72.7347 215.046C70.7657 218.602 69.0178 222.178 67.2095 225.754C66.0242 221.857 65.0999 217.959 64.1556 214.062C63.6333 211.952 62.9501 209.822 62.488 207.713C62.0862 205.804 61.8853 203.976 61.5237 202.088C58.3693 185.191 57.3647 169.179 58.7711 154.432L58.751 154.392ZM323.376 475.422C316.425 477.632 309.332 479.48 302.119 481.027C286.167 484.482 269.652 486.411 252.694 486.411C235.737 486.411 218.519 484.382 202.245 480.786C194.971 479.179 187.839 477.27 180.827 475C173.735 472.709 166.783 470.098 159.992 467.164C162.644 467.285 165.136 467.787 167.808 467.787C172.449 467.787 177.271 467.225 182.032 466.883C188.864 466.381 195.775 465.537 202.787 464.291C211.426 462.784 220.166 460.755 228.986 458.184C219.684 453.864 210.462 449.143 201.381 443.859C190.049 445.969 178.898 447.395 168.25 447.395C163.247 447.395 158.546 446.732 153.744 446.25C145.305 445.426 137.228 443.899 129.553 441.569C113.661 436.727 99.356 429.012 87.8033 417.48C76.0699 405.747 68.0735 391.242 63.2716 375.008C60.9812 367.273 59.394 359.177 58.6104 350.699C57.2643 335.912 58.2487 320.12 61.3026 303.787C55.9583 294.585 51.2167 285.263 46.877 275.861C44.2852 284.721 42.4166 293.46 40.9098 302.099C39.6641 309.131 38.8002 316.042 38.2979 322.873C37.7152 330.347 37.6148 337.66 37.9161 344.832C35.0029 338.041 32.4111 331.09 30.1407 323.998C27.9307 317.107 26.0622 310.055 24.495 302.903C20.9187 286.69 18.9096 269.894 18.9096 252.616C18.9096 235.338 20.8183 219.225 24.2539 203.313C25.801 196.101 27.6494 189.009 29.8595 182.057C32.1097 174.945 34.6613 167.974 37.5746 161.183C37.2732 168.335 37.4139 175.688 37.9965 183.242C38.539 190.053 39.423 196.985 40.6888 204.077C41.171 206.749 41.4522 209.36 42.0349 212.073C43.3609 218.2 45.0084 224.368 46.8368 230.496C47.9619 234.333 49.3281 238.17 50.6541 241.988C51.9601 245.765 53.1455 249.542 54.6323 253.299C58.1885 262.36 62.4278 271.32 67.0086 280.24C68.7365 283.636 70.5046 287.011 72.3731 290.366C74.3822 293.962 76.4918 297.518 78.6416 301.074C85.7942 312.888 93.8308 324.48 102.571 335.751C105.645 339.729 108.92 343.586 112.194 347.464C118.262 354.676 124.611 361.748 131.322 368.599C132.206 369.503 133.009 370.468 133.913 371.352C134.275 371.713 134.677 372.055 135.059 372.437C141.849 379.167 148.861 385.476 155.994 391.563C159.872 394.858 163.729 398.193 167.687 401.307C179.601 410.669 191.897 419.188 204.414 426.762C207.91 428.871 211.386 430.941 214.902 432.89C218.177 434.718 221.472 436.446 224.767 438.133C233.668 442.694 242.628 446.953 251.65 450.529C255.447 452.036 259.264 453.221 263.082 454.547C266.959 455.893 270.817 457.28 274.715 458.425C280.883 460.253 287.071 461.941 293.239 463.247C295.991 463.829 298.644 464.09 301.376 464.573C308.428 465.838 315.36 466.742 322.151 467.285C327.153 467.667 332.176 468.129 337.018 468.129C339.65 468.129 342.041 467.606 344.633 467.506C337.722 470.479 330.629 473.131 323.376 475.422ZM480.532 304.229C478.925 311.381 477.016 318.393 474.766 325.284C472.435 332.356 469.823 339.287 466.85 346.058C467.211 338.905 467.131 331.592 466.588 324.139C466.106 317.328 465.303 310.417 464.097 303.405C462.55 294.244 460.601 284.982 457.849 275.599C453.529 285.002 448.767 294.344 443.443 303.546C446.638 320.562 447.542 336.936 445.954 352.225C445.091 360.704 443.503 368.861 441.092 376.575C436.23 392.186 428.334 406.109 416.983 417.46C405.912 428.55 392.029 436.285 376.337 441.207C368.662 443.618 360.505 445.205 351.906 446.089C346.984 446.611 342.162 447.295 336.958 447.295C326.209 447.295 314.857 445.969 303.124 443.759C301.255 443.417 299.487 443.256 297.599 442.855C295.389 442.372 293.159 441.669 290.948 441.127C287.091 440.162 283.253 439.258 279.376 438.093C282.932 436.305 286.448 434.497 289.984 432.528C293.339 430.659 296.675 428.811 300.01 426.822C312.788 419.148 325.385 410.428 337.701 400.765C341.68 397.63 345.577 394.335 349.475 390.98C356.648 384.853 363.74 378.484 370.611 371.633C370.692 371.553 370.792 371.472 370.873 371.372C371.998 370.247 373.002 369.061 374.127 367.916C380.878 361.005 387.187 353.913 393.214 346.7C396.489 342.783 399.744 338.885 402.798 334.887C411.357 323.737 419.152 312.365 426.084 300.833C428.214 297.297 430.404 293.782 432.373 290.225C434.281 286.81 435.949 283.375 437.697 279.919C442.258 270.918 446.457 261.898 449.973 252.897C451.46 249.12 452.685 245.383 453.971 241.606C455.277 237.809 456.703 233.992 457.829 230.194C460.621 220.692 462.57 211.329 464.137 202.067C465.323 195.016 466.146 188.064 466.609 181.193C467.111 173.699 467.191 166.346 466.809 159.154C469.783 165.964 472.435 172.916 474.766 180.048C477.036 186.959 478.945 194.031 480.572 201.224C484.309 217.778 486.459 234.936 486.459 252.636C486.459 270.336 484.289 287.634 480.532 304.249V304.229Z" fill="black"/>
</svg>
