<svg width="476" height="476" viewBox="0 0 476 476" fill="none" xmlns="http://www.w3.org/2000/svg">
<path d="M454.138 139.362C450.417 131.22 446.223 123.343 441.633 115.731C434.568 103.981 426.615 92.8742 417.698 82.5604C411.351 75.2124 404.532 68.3365 397.335 61.8196C385.471 51.0714 372.569 41.5132 358.723 33.2961C351.355 28.9326 343.78 24.928 335.941 21.3768C306.075 7.79508 273.017 0.050293 238.145 0.050293C203.273 0.050293 169.761 7.9273 139.745 21.6601C132.056 25.1736 124.613 29.1215 117.397 33.4095C104.835 40.8709 93.0096 49.4091 82.0721 58.9861C73.0236 66.9009 64.5229 75.4012 56.7589 84.5816C47.9937 94.971 40.2109 106.191 33.297 117.979C28.8577 125.553 24.7774 133.317 21.1882 141.383C8.07823 170.813 0.654297 203.303 0.654297 237.531C0.654297 271.76 8.22936 304.798 21.5471 334.435C25.0607 342.275 29.0277 349.812 33.3348 357.179C40.022 368.607 47.5026 379.506 55.9655 389.631C65.2029 400.682 75.4037 410.901 86.4735 420.119C96.5421 428.487 107.404 435.873 118.757 442.522C125.992 446.754 133.435 450.645 141.105 454.102C170.782 467.457 203.556 475.05 238.145 475.05C272.733 475.05 304.998 467.589 334.467 454.442C342.269 450.947 349.825 447.018 357.173 442.749C369.773 435.401 381.655 426.995 392.65 417.55C402 409.522 410.728 400.795 418.719 391.426C427.37 381.282 435.078 370.364 441.954 358.86C446.431 351.361 450.53 343.635 454.195 335.644C467.853 305.704 475.654 272.553 475.654 237.55C475.654 202.548 467.834 169.359 454.176 139.399L454.138 139.362ZM355.946 61.1396C370.057 65.8053 382.543 72.9456 392.612 83.0138C403.077 93.4787 410.445 106.248 415.054 120.585C417.377 127.877 418.889 135.622 419.758 143.65C421.344 158.233 420.532 173.854 417.472 190.118C416.773 193.877 415.998 197.655 415.035 201.49C414.147 205.079 413.203 208.706 412.088 212.333C409.538 220.738 406.345 229.22 402.681 237.739C401.339 240.837 400.017 243.916 398.562 247.014C397.013 250.263 395.313 253.512 393.594 256.78C388.569 266.376 382.638 275.896 376.31 285.341C374.402 288.194 372.55 291.027 370.529 293.86C368.394 296.826 366.128 299.754 363.861 302.701C363.558 299.282 363.143 295.825 362.444 292.236C361.802 288.949 361.084 285.625 360.12 282.224C357.381 272.591 353.282 262.579 348.125 252.36C344.12 258.518 339.757 264.657 335.072 270.777C340.097 282.338 343.025 293.237 344.082 303.211C344.328 305.629 344.725 308.103 344.725 310.37C344.725 312.07 344.196 313.298 344.045 314.866C343.308 322.762 341.117 329.354 336.715 333.869C336.564 334.039 336.413 334.209 336.243 334.379C331.804 338.667 325.135 340.801 317.409 341.651C315.539 341.859 313.99 342.445 311.931 342.445C310.004 342.445 307.832 342.105 305.773 341.935C295.912 341.047 284.71 338.195 272.45 333.057C269.919 331.999 267.274 330.676 264.648 329.43C262.098 328.202 259.567 326.993 256.96 325.595C259.227 323.971 261.475 322.308 263.741 320.57C265.914 318.908 268.067 317.133 270.24 315.376C278.4 308.783 286.523 301.775 294.457 293.936C302.731 285.738 310.193 277.238 317.182 268.624C318.939 266.47 320.809 264.336 322.472 262.164C324.229 259.878 325.796 257.573 327.44 255.288C331.841 249.186 335.846 243.085 339.511 237.003C341.003 234.528 342.533 232.053 343.912 229.598C345.348 226.972 346.614 224.403 347.917 221.815C352.923 211.804 356.928 201.981 359.591 192.536C360.555 189.136 361.273 185.83 361.915 182.544C362.614 178.973 362.992 175.554 363.313 172.154C365.58 175.082 367.884 177.972 370.019 180.938C372.078 183.79 373.948 186.68 375.875 189.552C382.373 199.204 388.437 208.932 393.575 218.736C396.749 209.934 399.299 201.225 401.169 192.687C394.501 181.599 386.983 170.643 378.709 159.933C375.837 156.211 372.758 152.566 369.679 148.901C363.993 142.138 358.061 135.47 351.695 128.991C350.864 128.141 350.09 127.235 349.24 126.385C348.881 126.026 348.503 125.704 348.125 125.346C341.721 118.999 335.128 113.067 328.441 107.381C324.795 104.265 321.131 101.148 317.409 98.22C306.037 89.3418 294.401 81.3326 282.613 74.249C279.477 72.36 276.341 70.6222 273.187 68.8843C269.862 67.0331 266.537 65.352 263.212 63.6519C266.839 62.5563 270.466 61.7062 274.093 60.7995C276.171 60.2895 278.268 59.6095 280.327 59.175C282.103 58.7972 283.784 58.6461 285.541 58.325C296.516 56.266 307.171 55.0382 317.239 55.0382C322.623 55.0382 327.648 55.6993 332.729 56.2849C340.871 57.2105 348.635 58.7594 355.889 61.1584L355.946 61.1396ZM179.566 368.909C176.6 366.756 173.747 364.357 170.819 362.071C174.239 361.807 177.695 361.448 181.285 360.787C184.572 360.201 187.877 359.464 191.278 358.558C201.479 355.819 212.189 351.644 223.165 346.185C216.988 342.218 210.829 337.892 204.69 333.264C192.166 338.61 180.699 341.614 170.649 342.539C168.534 342.728 166.305 343.068 164.321 343.068C162.338 343.068 160.789 342.482 158.937 342.275C151.154 341.444 144.429 339.271 139.971 334.927C139.839 334.794 139.707 334.643 139.575 334.511C135.173 329.996 132.963 323.385 132.226 315.489C132.075 313.902 131.546 312.675 131.546 310.956C131.546 308.708 131.943 306.252 132.188 303.891C133.246 293.69 136.269 282.489 141.483 270.607C136.798 264.525 132.453 258.405 128.448 252.284C123.102 262.787 118.908 273.082 116.113 282.961C115.149 286.361 114.412 289.686 113.789 292.973C113.09 296.524 112.693 299.962 112.391 303.362C110.124 300.434 107.839 297.544 105.685 294.559C103.645 291.726 101.756 288.836 99.8291 285.965C93.3686 276.369 87.3047 266.659 82.1476 256.761C80.4475 253.512 78.7474 250.263 77.1984 246.976C75.7438 243.878 74.4214 240.78 73.0802 237.683C74.4403 234.547 75.7816 231.43 77.2739 228.294C78.7474 225.178 80.3908 222.08 82.0154 218.982C87.3236 208.857 93.5952 198.808 100.339 188.853C102.285 185.963 104.117 183.072 106.195 180.22C108.33 177.292 110.672 174.421 112.92 171.531C113.222 174.912 113.619 178.35 114.299 181.882C114.923 185.15 115.678 188.456 116.623 191.837C119.343 201.49 123.423 211.539 128.561 221.777C129.884 224.403 131.206 226.991 132.661 229.635C134.04 232.091 135.551 234.566 137.062 237.04C140.727 243.123 144.769 249.186 149.171 255.269C150.814 257.536 152.382 259.802 154.139 262.069C155.82 264.241 157.672 266.376 159.447 268.529C166.342 276.973 173.691 285.341 181.851 293.426C190.05 301.549 198.475 308.783 206.938 315.584C209.072 317.303 211.207 319.097 213.361 320.722C215.646 322.441 217.913 324.065 220.218 325.69C226.376 330.072 232.515 334.039 238.636 337.666C241.148 339.158 243.661 340.631 246.154 341.972C248.818 343.408 251.444 344.768 254.07 346.053C264.761 351.323 275.189 355.365 285.125 358.029C288.507 358.935 291.794 359.653 295.043 360.239C298.651 360.9 302.108 361.259 305.546 361.523C302.656 363.79 299.803 366.246 296.875 368.38C294.004 370.477 291.095 372.272 288.204 374.255C277.758 381.395 267.198 387.988 256.563 393.541C253.541 395.128 250.518 396.923 247.477 398.377C244.265 399.907 241.054 401.078 237.843 402.457C234.726 401.116 231.59 399.794 228.492 398.32C225.394 396.847 222.315 395.222 219.236 393.636C208.732 388.158 198.418 381.697 188.236 374.765C185.346 372.782 182.437 370.949 179.603 368.871L179.566 368.909ZM140.33 140.212C140.33 140.212 140.462 140.098 140.519 140.023C145.015 135.659 151.74 133.506 159.561 132.675C161.374 132.486 162.885 131.9 164.85 131.9C166.815 131.9 169.138 132.24 171.292 132.448C181.134 133.374 192.317 136.245 204.52 141.402C210.678 136.774 216.855 132.448 223.07 128.5C212.378 123.23 201.951 119.15 192.014 116.449C188.595 115.523 185.271 114.824 181.984 114.22C178.376 113.54 174.919 113.181 171.499 112.897C174.427 110.612 177.318 108.269 180.283 106.097C183.136 104.019 186.045 102.168 188.935 100.203C198.872 93.4787 208.921 87.1884 219.179 81.8426C222.258 80.237 225.337 78.6314 228.435 77.158C231.533 75.6846 234.65 74.3623 237.767 73.04C240.978 74.419 244.19 75.5901 247.42 77.1202C250.443 78.5747 253.465 80.3692 256.506 81.956C266.896 87.3773 277.229 93.7998 287.43 100.751C290.32 102.716 293.248 104.548 296.12 106.626C299.066 108.779 301.938 111.178 304.847 113.464C301.428 113.728 297.952 114.087 294.344 114.748C291.057 115.353 287.751 116.071 284.351 116.977C274.66 119.584 264.516 123.532 254.107 128.595C251.444 129.898 248.78 131.22 246.098 132.675C243.604 134.035 241.092 135.527 238.579 136.982C232.44 140.59 226.282 144.556 220.104 148.939C217.8 150.563 215.495 152.15 213.191 153.888C211.037 155.531 208.884 157.345 206.73 159.064C198.135 165.921 189.578 173.269 181.247 181.523C173.37 189.325 166.229 197.429 159.523 205.608C162.545 211.615 166.021 217.735 170.026 223.95C177.544 214.278 185.951 204.72 195.188 195.577C205.219 185.641 215.306 177.009 225.262 169.453C227.434 167.81 229.569 166.298 231.722 164.768C233.989 163.144 236.237 161.614 238.485 160.121C240.733 161.614 242.981 163.125 245.248 164.768C247.382 166.298 249.517 167.847 251.652 169.491C261.399 176.933 271.26 185.339 281.045 195.03C290.434 204.323 298.953 214.033 306.566 223.836C310.571 217.603 314.047 211.464 317.05 205.438C310.25 197.126 303.015 188.909 295.005 180.976C286.939 173.004 278.665 165.864 270.353 159.177C268.162 157.42 265.989 155.607 263.817 153.945C261.531 152.226 259.264 150.582 256.979 148.958C259.623 147.541 262.155 146.389 264.724 145.161C267.349 143.914 270.013 142.573 272.563 141.515C284.502 136.547 295.402 133.827 305.036 132.939C307.17 132.75 309.4 132.41 311.383 132.41C313.367 132.41 314.878 132.996 316.71 133.185C324.531 134.016 331.256 136.188 335.733 140.533C335.865 140.665 335.997 140.816 336.13 140.948C340.55 145.463 342.76 152.093 343.478 160.027C343.629 161.595 344.158 162.804 344.158 164.504C344.158 166.752 343.761 169.207 343.497 171.588C342.496 181.353 339.605 192.007 334.788 203.322C333.712 205.853 332.408 208.422 331.161 210.991C329.915 213.56 328.743 216.111 327.327 218.698C324.021 224.762 320.243 230.901 316.087 237.059C314.632 239.213 313.027 241.366 311.478 243.519C309.853 245.767 308.361 248.034 306.623 250.282C298.878 260.369 290.112 270.324 280.478 279.863C270.863 289.384 261.191 297.638 251.633 304.986C249.498 306.63 247.382 308.217 245.267 309.747C243 311.39 240.752 312.882 238.504 314.394C236.256 312.901 234.027 311.39 231.76 309.766C229.625 308.235 227.491 306.687 225.337 305.062C215.514 297.582 205.597 289.119 195.717 279.334C186.234 269.946 177.62 260.142 169.95 250.225C168.231 247.996 166.72 245.767 165.114 243.538C163.547 241.385 161.96 239.231 160.505 237.078C156.349 230.958 152.515 224.856 149.19 218.831C147.754 216.224 146.621 213.693 145.355 211.124C144.089 208.555 142.729 205.967 141.653 203.454C136.647 191.875 133.7 180.938 132.68 170.964C132.434 168.622 132.037 166.204 132.037 163.975C132.037 162.256 132.566 161.009 132.717 159.441C133.454 151.508 135.664 144.878 140.103 140.363C140.16 140.306 140.217 140.231 140.274 140.174L140.33 140.212ZM55.7766 145.161C56.5511 136.925 58.2135 129.161 60.4803 121.794C65.0896 106.777 72.5513 93.6109 83.1299 83.0138C93.633 72.5111 106.573 65.333 120.967 60.7429C128.221 58.4383 135.891 56.9271 143.882 56.0582C148.774 55.5293 153.629 54.8871 158.748 54.8871C168.76 54.8871 179.244 56.2282 189.899 58.2116C198.456 53.2437 207.146 48.7857 215.892 44.7433C207.221 42.231 198.645 40.2287 190.163 38.7931C183.551 37.6786 177.053 36.9419 170.63 36.5074C166.531 36.224 162.356 35.714 158.371 35.714C155.424 35.714 152.685 36.2429 149.813 36.3941C156.217 33.5795 162.753 31.0672 169.459 28.8571C176.052 26.6847 182.777 24.8336 189.634 23.2846C205.275 19.7333 221.465 17.7122 238.164 17.7122C254.863 17.7122 270.466 19.6578 285.862 23.0768C292.644 24.588 299.331 26.3825 305.867 28.4982C312.705 30.7272 319.393 33.2584 325.929 36.1296C323.057 35.9785 320.375 35.4307 317.428 35.4307C313.291 35.4307 308.965 35.8462 304.696 36.1485C298.311 36.6018 291.794 37.4141 285.144 38.5475C282.178 39.0575 279.307 39.3408 276.304 39.9831C270.523 41.2298 264.705 42.7977 258.887 44.5166C255.241 45.5933 251.595 46.8967 247.949 48.1434C244.36 49.3902 240.771 50.5047 237.2 51.9214C228.7 55.2837 220.293 59.2883 211.906 63.5952C208.808 65.1819 205.71 66.7876 202.65 68.5065C199.344 70.3577 196.057 72.3033 192.789 74.2868C181.285 81.257 169.969 89.0585 158.994 97.6344C155.254 100.543 151.646 103.679 148 106.777C141.35 112.406 134.814 118.3 128.467 124.533C127.825 125.1 127.069 125.497 126.446 126.12C125.766 126.8 125.275 127.631 124.651 128.349C118.266 134.828 112.316 141.477 106.63 148.221C103.551 151.848 100.452 155.475 97.5811 159.177C89.0049 170.227 81.2598 181.58 74.3837 193.027C72.5513 196.087 70.6434 199.11 68.9243 202.189C67.0731 205.532 65.4296 208.895 63.7295 212.257C62.6149 208.592 61.746 204.928 60.8581 201.263C60.367 199.28 59.7247 197.277 59.2902 195.294C58.9124 193.5 58.7235 191.781 58.3835 190.005C55.4177 174.119 54.4732 159.064 55.7955 145.199L55.7766 145.161ZM304.583 446.999C298.046 449.077 291.378 450.815 284.596 452.269C269.597 455.518 254.07 457.332 238.126 457.332C222.182 457.332 205.993 455.424 190.692 452.043C183.854 450.531 177.148 448.737 170.555 446.602C163.887 444.449 157.35 441.993 150.965 439.235C153.459 439.349 155.801 439.821 158.314 439.821C162.678 439.821 167.211 439.292 171.688 438.971C178.111 438.499 184.609 437.705 191.202 436.534C199.325 435.117 207.542 433.21 215.835 430.792C207.089 426.73 198.418 422.291 189.88 417.323C179.226 419.307 168.741 420.648 158.729 420.648C154.026 420.648 149.605 420.025 145.091 419.571C137.157 418.797 129.563 417.361 122.346 415.17C107.404 410.618 93.9542 403.364 83.0922 392.521C72.0601 381.49 64.5417 367.851 60.0269 352.588C57.8734 345.316 56.3811 337.703 55.6444 329.732C54.3787 315.829 55.3043 300.982 58.1757 285.625C53.1508 276.973 48.6927 268.208 44.6123 259.368C42.1755 267.698 40.4187 275.915 39.0019 284.038C37.8307 290.649 37.0184 297.147 36.5461 303.57C35.9983 310.597 35.9038 317.473 36.1872 324.216C33.4481 317.831 31.0112 311.296 28.8766 304.628C26.7987 298.148 25.0419 291.518 23.5684 284.793C20.2059 269.549 18.3169 253.758 18.3169 237.513C18.3169 221.267 20.1114 206.118 23.3417 191.157C24.7963 184.376 26.5342 177.708 28.6121 171.172C30.7279 164.485 33.127 157.93 35.8661 151.546C35.5827 158.27 35.715 165.184 36.2628 172.286C36.7728 178.69 37.604 185.207 38.7941 191.875C39.2475 194.387 39.5119 196.843 40.0597 199.393C41.3065 205.155 42.8555 210.954 44.5746 216.715C45.6324 220.323 46.917 223.931 48.1637 227.52C49.3916 231.071 50.5062 234.622 51.9041 238.155C55.2477 246.674 59.2335 255.099 63.5405 263.486C65.1651 266.678 66.8275 269.852 68.5843 273.006C70.4734 276.388 72.4568 279.731 74.4781 283.074C81.2031 294.182 88.7593 305.081 96.9766 315.678C99.8669 319.418 102.946 323.045 106.025 326.691C111.73 333.472 117.699 340.121 124.009 346.563C124.84 347.413 125.596 348.319 126.446 349.151C126.786 349.491 127.164 349.812 127.522 350.171C133.907 356.499 140.5 362.43 147.206 368.154C150.852 371.251 154.479 374.387 158.201 377.315C169.403 386.118 180.963 394.127 192.732 401.248C196.019 403.232 199.287 405.177 202.593 407.01C205.672 408.729 208.77 410.353 211.868 411.94C220.237 416.228 228.662 420.232 237.144 423.595C240.714 425.012 244.303 426.126 247.892 427.373C251.538 428.638 255.165 429.942 258.83 431.018C264.629 432.737 270.447 434.324 276.247 435.552C278.835 436.1 281.328 436.345 283.897 436.799C290.528 437.989 297.045 438.839 303.43 439.349C308.134 439.708 312.857 440.142 317.409 440.142C319.884 440.142 322.132 439.651 324.569 439.557C318.07 442.352 311.402 444.846 304.583 446.999ZM452.344 286.04C450.832 292.765 449.038 299.357 446.922 305.837C444.731 312.486 442.275 319.003 439.479 325.368C439.819 318.644 439.744 311.768 439.234 304.76C438.78 298.356 438.025 291.858 436.891 285.266C435.437 276.652 433.604 267.944 431.016 259.122C426.955 267.963 422.478 276.746 417.472 285.398C420.475 301.397 421.325 316.792 419.833 331.168C419.021 339.139 417.528 346.808 415.262 354.062C410.69 368.739 403.266 381.83 392.593 392.502C382.184 402.929 369.131 410.202 354.378 414.83C347.162 417.097 339.492 418.589 331.407 419.42C326.779 419.911 322.245 420.554 317.352 420.554C307.246 420.554 296.573 419.307 285.541 417.229C283.784 416.908 282.122 416.757 280.346 416.379C278.268 415.926 276.171 415.264 274.093 414.754C270.466 413.848 266.858 412.998 263.212 411.902C266.556 410.221 269.862 408.521 273.187 406.67C276.341 404.913 279.477 403.175 282.613 401.305C294.627 394.089 306.472 385.891 318.051 376.805C321.792 373.858 325.456 370.76 329.121 367.606C335.865 361.844 342.533 355.856 348.994 349.415C349.07 349.339 349.164 349.264 349.24 349.169C350.297 348.112 351.242 346.997 352.3 345.92C358.647 339.422 364.579 332.754 370.246 325.973C373.325 322.289 376.385 318.625 379.256 314.866C387.304 304.382 394.633 293.69 401.15 282.848C403.153 279.523 405.212 276.217 407.063 272.874C408.858 269.663 410.426 266.433 412.069 263.184C416.357 254.721 420.305 246.24 423.611 237.777C425.009 234.226 426.161 230.712 427.37 227.161C428.598 223.591 429.939 220.002 430.997 216.432C433.623 207.497 435.455 198.694 436.929 189.986C438.043 183.356 438.818 176.82 439.252 170.36C439.725 163.314 439.8 156.4 439.441 149.638C442.237 156.041 444.731 162.577 446.922 169.283C449.057 175.781 450.851 182.43 452.381 189.193C455.895 204.758 457.916 220.89 457.916 237.531C457.916 254.173 455.876 270.437 452.344 286.059V286.04Z" fill="white"/>
</svg>
