<svg width="1188" height="747" viewBox="0 0 1188 747" fill="none" xmlns="http://www.w3.org/2000/svg">
<path d="M833.578 155.219C829.447 146.182 824.792 137.438 819.696 128.987C811.853 115.944 803.025 103.615 793.127 92.1655C786.082 84.0086 778.512 76.3759 770.522 69.1416C757.353 57.2103 743.031 46.5999 727.66 37.4784C719.481 32.6346 711.073 28.1892 702.37 24.247C669.217 9.1703 632.52 0.572998 593.809 0.572998C555.099 0.572998 517.899 9.31707 484.578 24.5615C476.043 28.4618 467.781 32.8443 459.77 37.6042C445.825 45.887 432.698 55.365 420.557 65.9963C410.512 74.7823 401.076 84.2183 392.457 94.4092C382.727 105.942 374.088 118.398 366.413 131.482C361.485 139.891 356.955 148.509 352.971 157.463C338.418 190.133 330.177 226.199 330.177 264.195C330.177 302.191 338.586 338.866 353.369 371.766C357.27 380.468 361.673 388.835 366.455 397.013C373.878 409.699 382.182 421.798 391.576 433.037C401.831 445.304 413.154 456.648 425.443 466.881C436.62 476.171 448.677 484.369 461.28 491.751C469.312 496.448 477.574 500.767 486.087 504.605C519.031 519.43 555.414 527.859 593.809 527.859C632.205 527.859 668.022 519.576 700.734 504.982C709.395 501.103 717.783 496.741 725.94 492.002C739.927 483.845 753.117 474.514 765.321 464.03C775.702 455.118 785.39 445.43 794.26 435.029C803.864 423.769 812.42 411.649 820.053 398.879C825.023 390.554 829.573 381.978 833.641 373.108C848.802 339.872 857.463 303.072 857.463 264.216C857.463 225.361 848.781 188.518 833.62 155.261L833.578 155.219ZM724.577 68.3867C740.242 73.5661 754.103 81.4923 765.28 92.6688C776.897 104.286 785.075 118.461 790.192 134.376C792.771 142.47 794.449 151.067 795.413 159.979C797.175 176.167 796.273 193.509 792.876 211.563C792.1 215.736 791.24 219.93 790.171 224.186C789.185 228.17 788.137 232.196 786.899 236.222C784.069 245.554 780.525 254.969 776.456 264.426C774.968 267.865 773.5 271.283 771.885 274.722C770.166 278.328 768.278 281.935 766.37 285.563C760.792 296.215 754.207 306.783 747.183 317.268C745.065 320.434 743.01 323.579 740.766 326.725C738.396 330.017 735.88 333.267 733.363 336.538C733.028 332.743 732.567 328.905 731.791 324.921C731.078 321.273 730.281 317.582 729.211 313.808C726.171 303.114 721.62 292 715.896 280.656C711.45 287.492 706.606 294.307 701.406 301.1C706.983 313.934 710.234 326.033 711.408 337.104C711.681 339.788 712.121 342.535 712.121 345.052C712.121 346.939 711.534 348.302 711.366 350.042C710.548 358.807 708.116 366.125 703.23 371.137C703.062 371.326 702.894 371.514 702.706 371.703C697.778 376.463 690.375 378.833 681.799 379.776C679.723 380.007 678.003 380.657 675.717 380.657C673.579 380.657 671.167 380.279 668.881 380.091C657.935 379.105 645.5 375.939 631.891 370.235C629.081 369.061 626.145 367.593 623.23 366.209C620.399 364.846 617.589 363.504 614.695 361.953C617.212 360.149 619.707 358.304 622.223 356.375C624.635 354.529 627.026 352.558 629.437 350.608C638.496 343.29 647.513 335.511 656.32 326.808C665.505 317.708 673.788 308.272 681.547 298.71C683.497 296.32 685.573 293.95 687.419 291.539C689.369 289.001 691.109 286.443 692.934 283.906C697.82 277.133 702.265 270.36 706.333 263.608C707.99 260.861 709.689 258.114 711.219 255.388C712.813 252.473 714.218 249.622 715.665 246.749C721.222 235.635 725.668 224.731 728.624 214.247C729.694 210.473 730.491 206.803 731.204 203.154C731.979 199.191 732.399 195.396 732.755 191.621C735.272 194.872 737.83 198.08 740.2 201.372C742.485 204.538 744.561 207.747 746.7 210.934C753.914 221.649 760.645 232.448 766.349 243.331C769.872 233.559 772.703 223.893 774.779 214.415C767.377 202.106 759.031 189.944 749.846 178.054C746.658 173.924 743.24 169.877 739.822 165.809C733.51 158.302 726.926 150.9 719.859 143.707C718.936 142.764 718.077 141.757 717.133 140.814C716.734 140.415 716.315 140.059 715.896 139.66C708.787 132.615 701.468 126.03 694.045 119.719C689.998 116.259 685.93 112.799 681.799 109.549C669.175 99.6934 656.257 90.8026 643.172 82.9392C639.691 80.8423 636.21 78.9131 632.708 76.984C629.018 74.929 625.327 73.0628 621.636 71.1756C625.663 69.9594 629.689 69.0158 633.715 68.0093C636.022 67.4431 638.349 66.6882 640.635 66.2059C642.606 65.7865 644.472 65.6188 646.423 65.2623C658.606 62.9767 670.433 61.6137 681.61 61.6137C687.586 61.6137 693.164 62.3476 698.805 62.9977C707.843 64.0252 716.462 65.7446 724.514 68.4077L724.577 68.3867ZM528.782 410.034C525.49 407.644 522.323 404.981 519.073 402.444C522.868 402.15 526.706 401.752 530.69 401.018C534.339 400.368 538.009 399.55 541.783 398.543C553.107 395.503 564.997 390.869 577.18 384.809C570.323 380.405 563.487 375.603 556.672 370.466C542.769 376.4 530.04 379.734 518.884 380.762C516.536 380.971 514.061 381.349 511.859 381.349C509.657 381.349 507.938 380.699 505.883 380.468C497.243 379.545 489.778 377.134 484.829 372.311C484.682 372.164 484.536 371.997 484.389 371.85C479.503 366.838 477.049 359.499 476.232 350.734C476.064 348.973 475.477 347.61 475.477 345.702C475.477 343.206 475.917 340.48 476.19 337.859C477.364 326.536 480.719 314.101 486.507 300.912C481.306 294.16 476.483 287.366 472.038 280.572C466.103 292.231 461.448 303.659 458.344 314.626C457.275 318.4 456.457 322.09 455.765 325.739C454.989 329.681 454.549 333.498 454.213 337.272C451.697 334.022 449.16 330.814 446.769 327.5C444.504 324.355 442.407 321.147 440.268 317.96C433.097 307.307 426.365 296.529 420.641 285.542C418.753 281.935 416.866 278.328 415.146 274.68C413.532 271.241 412.064 267.802 410.575 264.363C412.085 260.882 413.574 257.422 415.23 253.941C416.866 250.481 418.69 247.042 420.494 243.604C426.386 232.364 433.348 221.209 440.835 210.158C442.994 206.95 445.028 203.742 447.335 200.575C449.705 197.325 452.305 194.138 454.8 190.929C455.136 194.683 455.576 198.499 456.331 202.42C457.023 206.048 457.862 209.718 458.91 213.471C461.93 224.186 466.46 235.342 472.163 246.707C473.631 249.622 475.099 252.494 476.714 255.43C478.245 258.156 479.922 260.903 481.6 263.65C485.668 270.402 490.156 277.133 495.041 283.885C496.866 286.401 498.606 288.918 500.557 291.434C502.423 293.845 504.478 296.215 506.449 298.605C514.103 307.978 522.26 317.268 531.319 326.242C540.42 335.259 549.773 343.29 559.167 350.839C561.537 352.747 563.906 354.739 566.297 356.542C568.834 358.451 571.351 360.254 573.909 362.057C580.745 366.922 587.56 371.326 594.355 375.352C597.144 377.008 599.933 378.644 602.701 380.133C605.657 381.726 608.572 383.236 611.487 384.662C623.356 390.512 634.931 395 645.961 397.956C649.715 398.963 653.364 399.76 656.97 400.41C660.976 401.144 664.813 401.542 668.63 401.836C665.421 404.352 662.255 407.078 659.005 409.447C655.817 411.775 652.588 413.767 649.379 415.969C637.783 423.895 626.061 431.213 614.255 437.378C610.9 439.139 607.545 441.131 604.168 442.746C600.604 444.445 597.039 445.745 593.474 447.275C590.014 445.787 586.533 444.319 583.094 442.683C579.655 441.048 576.237 439.244 572.819 437.483C561.159 431.402 549.71 424.23 538.407 416.535C535.199 414.333 531.969 412.299 528.824 409.992L528.782 410.034ZM485.228 156.163C485.228 156.163 485.374 156.037 485.437 155.953C490.428 151.109 497.893 148.719 506.575 147.796C508.588 147.587 510.266 146.937 512.446 146.937C514.627 146.937 517.207 147.314 519.597 147.545C530.522 148.572 542.937 151.759 556.483 157.484C563.319 152.347 570.176 147.545 577.075 143.162C565.207 137.312 553.631 132.782 542.601 129.784C538.806 128.756 535.115 127.981 531.466 127.31C527.461 126.555 523.623 126.156 519.828 125.842C523.078 123.304 526.287 120.704 529.579 118.293C532.745 115.986 535.975 113.931 539.183 111.751C550.213 104.286 561.369 97.3029 572.756 91.3687C576.174 89.5863 579.592 87.804 583.031 86.1684C586.47 84.5328 589.93 83.065 593.39 81.5972C596.955 83.1279 600.52 84.428 604.105 86.1265C607.461 87.7411 610.816 89.7331 614.192 91.4945C625.725 97.5126 637.196 104.642 648.52 112.359C651.728 114.539 654.978 116.573 658.166 118.88C661.437 121.271 664.624 123.934 667.854 126.471C664.058 126.764 660.2 127.163 656.195 127.897C652.546 128.568 648.876 129.365 645.102 130.371C634.344 133.265 623.083 137.647 611.529 143.267C608.572 144.714 605.615 146.182 602.638 147.796C599.87 149.306 597.081 150.963 594.292 152.577C587.476 156.582 580.64 160.986 573.783 165.851C571.225 167.654 568.667 169.415 566.108 171.344C563.718 173.169 561.327 175.182 558.937 177.09C549.395 184.702 539.896 192.859 530.648 202.022C521.904 210.682 513.977 219.678 506.533 228.758C509.888 235.426 513.747 242.22 518.192 249.118C526.538 238.382 535.87 227.772 546.124 217.623C557.259 206.593 568.457 197.01 579.508 188.623C581.919 186.799 584.289 185.121 586.68 183.423C589.196 181.619 591.691 179.921 594.187 178.264C596.682 179.921 599.178 181.598 601.694 183.423C604.064 185.121 606.433 186.841 608.803 188.665C619.623 196.927 630.569 206.258 641.432 217.015C651.854 227.332 661.311 238.11 669.762 248.993C674.208 242.073 678.066 235.258 681.4 228.569C673.851 219.342 665.82 210.221 656.928 201.414C647.974 192.565 638.79 184.639 629.563 177.216C627.13 175.266 624.719 173.253 622.307 171.407C619.77 169.499 617.254 167.675 614.716 165.872C617.652 164.299 620.462 163.02 623.314 161.657C626.229 160.273 629.185 158.784 632.016 157.61C645.269 152.095 657.369 149.075 668.063 148.09C670.433 147.88 672.908 147.503 675.109 147.503C677.311 147.503 678.989 148.153 681.023 148.362C689.704 149.285 697.17 151.696 702.139 156.519C702.286 156.666 702.433 156.834 702.58 156.981C707.487 161.992 709.94 169.352 710.737 178.159C710.905 179.9 711.492 181.242 711.492 183.129C711.492 185.624 711.052 188.35 710.758 190.992C709.647 201.833 706.438 213.66 701.091 226.22C699.896 229.03 698.449 231.882 697.065 234.734C695.681 237.585 694.381 240.416 692.808 243.289C689.138 250.02 684.944 256.835 680.331 263.671C678.716 266.061 676.934 268.452 675.214 270.842C673.411 273.338 671.754 275.854 669.825 278.349C661.227 289.547 651.497 300.597 640.803 311.187C630.129 321.755 619.393 330.918 608.782 339.075C606.412 340.9 604.064 342.661 601.715 344.36C599.199 346.184 596.703 347.84 594.208 349.518C591.712 347.861 589.238 346.184 586.722 344.38C584.352 342.682 581.982 340.963 579.592 339.159C568.687 330.856 557.678 321.461 546.711 310.599C536.184 300.178 526.622 289.295 518.108 278.286C516.2 275.812 514.522 273.338 512.74 270.863C511 268.473 509.238 266.082 507.623 263.692C503.01 256.898 498.753 250.125 495.062 243.436C493.469 240.542 492.211 237.732 490.806 234.88C489.401 232.029 487.891 229.156 486.695 226.367C481.138 213.513 477.867 201.372 476.735 190.3C476.462 187.7 476.022 185.016 476.022 182.542C476.022 180.634 476.609 179.25 476.777 177.509C477.595 168.702 480.048 161.342 484.976 156.331C485.039 156.268 485.102 156.184 485.165 156.121L485.228 156.163ZM391.367 161.657C392.226 152.514 394.072 143.896 396.588 135.718C401.705 119.048 409.988 104.432 421.731 92.6688C433.39 81.0101 447.755 73.0418 463.734 67.9464C471.786 65.3881 480.3 63.7106 489.17 62.7461C494.601 62.1589 499.99 61.446 505.673 61.446C516.787 61.446 528.425 62.9348 540.252 65.1365C549.752 59.6217 559.398 54.673 569.107 50.1856C559.482 47.3968 549.961 45.1741 540.546 43.5804C533.207 42.3432 525.993 41.5254 518.863 41.0431C514.313 40.7286 509.678 40.1625 505.254 40.1625C501.983 40.1625 498.942 40.7496 495.754 40.9173C502.863 37.793 510.119 35.0041 517.563 32.5507C524.882 30.1393 532.347 28.0843 539.959 26.3649C557.322 22.4227 575.293 20.179 593.83 20.179C612.368 20.179 629.689 22.3388 646.779 26.1342C654.307 27.8117 661.731 29.8038 668.986 32.1523C676.577 34.6267 684.001 37.4365 691.256 40.6238C688.069 40.456 685.091 39.8479 681.82 39.8479C677.227 39.8479 672.425 40.3092 667.686 40.6447C660.598 41.148 653.364 42.0497 645.982 43.3078C642.69 43.874 639.503 44.1885 636.168 44.9014C629.752 46.2854 623.293 48.0258 616.834 49.934C612.787 51.1292 608.74 52.5761 604.693 53.96C600.708 55.344 596.724 56.5812 592.761 58.1538C583.324 61.8863 573.993 66.3317 564.682 71.1127C561.243 72.8741 557.804 74.6564 554.407 76.5646C550.737 78.6196 547.089 80.7794 543.461 82.9811C530.69 90.7187 518.129 99.3789 505.946 108.899C501.794 112.128 497.789 115.609 493.741 119.048C486.36 125.297 479.104 131.839 472.059 138.759C471.346 139.388 470.507 139.828 469.815 140.52C469.06 141.275 468.515 142.198 467.823 142.994C460.735 150.187 454.129 157.568 447.817 165.054C444.399 169.08 440.96 173.106 437.773 177.216C428.253 189.483 419.655 202.085 412.022 214.792C409.988 218.189 407.87 221.544 405.962 224.962C403.907 228.674 402.082 232.406 400.195 236.139C398.958 232.071 397.993 228.003 397.008 223.935C396.462 221.733 395.749 219.51 395.267 217.308C394.848 215.316 394.638 213.408 394.261 211.437C390.968 193.802 389.92 177.09 391.388 161.699L391.367 161.657ZM667.56 496.72C660.305 499.027 652.902 500.956 645.374 502.571C628.724 506.177 611.487 508.19 593.788 508.19C576.09 508.19 558.119 506.072 541.133 502.319C533.542 500.641 526.098 498.649 518.779 496.28C511.377 493.889 504.121 491.163 497.034 488.102C499.802 488.228 502.402 488.752 505.191 488.752C510.035 488.752 515.068 488.165 520.037 487.808C527.167 487.284 534.381 486.403 541.699 485.103C550.716 483.531 559.838 481.413 569.044 478.729C559.335 474.22 549.71 469.293 540.231 463.778C528.404 465.98 516.766 467.468 505.652 467.468C500.431 467.468 495.524 466.776 490.512 466.273C481.705 465.413 473.275 463.82 465.264 461.387C448.677 456.334 433.747 448.282 421.689 436.246C409.443 424 401.097 408.86 396.085 391.917C393.694 383.844 392.038 375.394 391.22 366.545C389.815 351.112 390.842 334.63 394.03 317.582C388.452 307.978 383.503 298.249 378.974 288.435C376.268 297.683 374.318 306.804 372.745 315.821C371.445 323.16 370.544 330.373 370.019 337.503C369.411 345.303 369.306 352.936 369.621 360.422C366.58 353.334 363.875 346.079 361.506 338.677C359.199 331.485 357.249 324.124 355.613 316.659C351.881 299.738 349.784 282.207 349.784 264.174C349.784 246.141 351.776 229.324 355.362 212.716C356.976 205.188 358.905 197.786 361.212 190.531C363.561 183.108 366.224 175.832 369.265 168.744C368.95 176.209 369.097 183.884 369.705 191.768C370.271 198.877 371.194 206.111 372.515 213.513C373.018 216.302 373.312 219.028 373.92 221.859C375.304 228.254 377.023 234.692 378.932 241.087C380.106 245.092 381.532 249.097 382.916 253.082C384.279 257.024 385.516 260.966 387.068 264.887C390.78 274.344 395.204 283.696 399.985 293.006C401.789 296.55 403.634 300.073 405.584 303.575C407.681 307.328 409.883 311.04 412.127 314.751C419.592 327.081 427.98 339.18 437.102 350.944C440.31 355.096 443.728 359.122 447.146 363.169C453.479 370.697 460.106 378.078 467.11 385.228C468.032 386.172 468.871 387.178 469.815 388.101C470.192 388.478 470.612 388.835 471.01 389.233C478.098 396.258 485.416 402.842 492.861 409.196C496.908 412.635 500.934 416.115 505.065 419.366C517.5 429.137 530.334 438.028 543.398 445.933C547.047 448.135 550.674 450.295 554.344 452.329C557.762 454.237 561.201 456.04 564.64 457.802C573.93 462.562 583.282 467.007 592.698 470.74C596.661 472.312 600.645 473.549 604.63 474.933C608.677 476.338 612.703 477.785 616.771 478.98C623.209 480.889 629.668 482.65 636.105 484.013C638.978 484.621 641.746 484.894 644.598 485.397C651.959 486.718 659.193 487.662 666.281 488.228C671.503 488.626 676.745 489.108 681.799 489.108C684.546 489.108 687.041 488.563 689.746 488.458C682.533 491.562 675.13 494.33 667.56 496.72ZM831.586 318.043C829.909 325.508 827.916 332.827 825.568 340.019C823.135 347.4 820.409 354.634 817.306 361.701C817.683 354.236 817.599 346.603 817.033 338.824C816.53 331.715 815.691 324.502 814.433 317.184C812.818 307.622 810.784 297.955 807.911 288.163C803.403 297.976 798.433 307.727 792.876 317.331C796.21 335.091 797.154 352.181 795.497 368.138C794.595 376.987 792.939 385.501 790.422 393.553C785.348 409.846 777.107 424.377 765.259 436.225C753.704 447.8 739.214 455.873 722.837 461.01C714.826 463.526 706.312 465.183 697.337 466.105C692.2 466.651 687.167 467.364 681.736 467.364C670.517 467.364 658.669 465.98 646.423 463.673C644.472 463.317 642.627 463.149 640.656 462.729C638.349 462.226 636.022 461.492 633.715 460.926C629.689 459.92 625.683 458.976 621.636 457.76C625.348 455.894 629.018 454.006 632.708 451.951C636.21 450.001 639.691 448.072 643.172 445.996C656.509 437.986 669.657 428.885 682.512 418.799C686.664 415.528 690.732 412.089 694.8 408.588C702.286 402.192 709.689 395.545 716.86 388.394C716.944 388.311 717.049 388.227 717.133 388.122C718.307 386.948 719.356 385.71 720.53 384.515C727.576 377.302 734.16 369.9 740.451 362.372C743.869 358.283 747.266 354.215 750.454 350.042C759.387 338.404 767.523 326.536 774.758 314.5C776.981 310.809 779.266 307.14 781.321 303.428C783.314 299.863 785.054 296.278 786.878 292.671C791.639 283.277 796.021 273.862 799.691 264.468C801.243 260.526 802.522 256.625 803.864 252.683C805.227 248.72 806.716 244.736 807.89 240.773C810.805 230.854 812.839 221.083 814.475 211.416C815.712 204.056 816.572 196.801 817.054 189.629C817.578 181.808 817.662 174.133 817.264 166.626C820.367 173.735 823.135 180.99 825.568 188.434C827.937 195.647 829.929 203.029 831.628 210.535C835.528 227.814 837.772 245.721 837.772 264.195C837.772 282.669 835.507 300.723 831.586 318.064V318.043Z" fill="black"/>
<path d="M38.6817 688.4C38.912 700.258 45.0139 708.893 62.7439 708.893C78.5167 708.893 83.3522 703.482 83.3522 694.617C83.3522 686.557 79.0924 682.528 69.4214 680.916L51.346 678.153C38.1061 676.196 32.0042 669.633 32.0042 658.12C32.0042 645.801 41.2146 636.015 61.0169 636.015C81.1647 636.015 91.0659 646.147 92.102 660.883H82.7765C81.7403 650.522 75.4082 643.499 61.0169 643.499C47.4316 643.499 41.6751 649.37 41.6751 657.89C41.6751 663.877 44.4382 668.597 53.1881 669.979L72.2997 672.857C85.885 675.044 93.0231 681.031 93.0231 693.35C93.0231 707.972 84.1581 716.376 62.7439 716.376C37.9909 716.376 29.3562 703.482 29.3562 688.4H38.6817ZM139.648 716.606C113.053 716.606 101.425 699.452 101.425 676.311C101.425 653.515 113.053 636.015 139.648 636.015C166.243 636.015 177.756 653.63 177.756 676.311C177.756 699.337 166.243 716.606 139.648 716.606ZM111.441 676.311C111.441 697.84 120.076 708.662 139.648 708.662C159.22 708.662 167.74 697.84 167.74 676.311C167.74 654.782 159.22 643.959 139.648 643.959C120.076 643.959 111.441 654.782 111.441 676.311ZM225.664 716.606C199.299 716.606 187.441 699.567 187.441 676.311C187.441 653.285 199.529 636.015 225.894 636.015C249.496 636.015 260.203 647.643 262.16 666.64H252.374C250.762 651.673 242.358 643.959 225.779 643.959C206.552 643.959 197.457 654.897 197.457 676.311C197.457 697.725 206.322 708.662 225.549 708.662C242.933 708.662 251.683 699.682 252.604 684.14H262.39C261.239 703.597 250.302 716.606 225.664 716.606ZM276.038 714.649V706.935H292.272V645.801H276.038V638.088H318.061V645.801H301.828V706.935H318.061V714.649H276.038ZM349.803 679.074V706.935H397.236V714.649H340.247V638.088H396.891V645.801H349.803V671.475H393.437V679.074H349.803ZM432.271 714.764V645.801H404.64V638.088H469.112V645.801H441.712V714.764H432.271ZM469.563 638.088H480.5L497.885 669.748C499.612 673.087 501.339 676.311 503.181 679.535C504.908 676.311 506.75 673.087 508.477 669.748L525.977 638.088H536.684L507.901 687.824V714.649H498.346V687.824L469.563 638.088ZM604.519 638.088C620.982 638.088 627.66 648.104 627.66 660.423C627.66 672.627 620.982 682.873 604.058 682.873H579.075V714.649H569.404V638.088H604.519ZM579.075 675.16H602.101C613.499 675.16 617.644 669.173 617.644 660.423C617.644 651.328 613.499 645.801 602.447 645.801H579.075V675.16ZM696.214 702.445C696.214 708.087 697.02 711.771 697.71 714.649H688.385C687.579 712.116 687.003 708.317 687.003 702.791V695.768C687.003 684.83 681.132 680.34 670.54 680.34H649.01V714.649H639.455V638.088H675.145C690.918 638.088 698.631 645.917 698.631 658.235C698.631 668.482 692.299 675.62 683.78 677.577C691.033 679.65 696.214 683.104 696.214 694.386V702.445ZM649.01 673.202H673.994C684.701 673.202 688.615 667.791 688.615 659.041C688.615 650.176 684.125 645.801 674.109 645.801H649.01V673.202ZM745.856 716.606C719.261 716.606 707.633 699.452 707.633 676.311C707.633 653.515 719.261 636.015 745.856 636.015C772.451 636.015 783.964 653.63 783.964 676.311C783.964 699.337 772.451 716.606 745.856 716.606ZM717.649 676.311C717.649 697.84 726.284 708.662 745.856 708.662C765.428 708.662 773.948 697.84 773.948 676.311C773.948 654.782 765.428 643.959 745.856 643.959C726.284 643.959 717.649 654.782 717.649 676.311ZM813.784 714.764V645.801H786.153V638.088H850.626V645.801H823.225V714.764H813.784ZM890.792 716.606C864.196 716.606 852.568 699.452 852.568 676.311C852.568 653.515 864.196 636.015 890.792 636.015C917.387 636.015 928.9 653.63 928.9 676.311C928.9 699.337 917.387 716.606 890.792 716.606ZM862.585 676.311C862.585 697.84 871.219 708.662 890.792 708.662C910.364 708.662 918.883 697.84 918.883 676.311C918.883 654.782 910.364 643.959 890.792 643.959C871.219 643.959 862.585 654.782 862.585 676.311ZM976.807 716.606C950.442 716.606 938.584 699.567 938.584 676.311C938.584 653.285 950.673 636.015 977.037 636.015C1000.64 636.015 1011.35 647.643 1013.3 666.64H1003.52C1001.91 651.673 993.501 643.959 976.922 643.959C957.696 643.959 948.6 654.897 948.6 676.311C948.6 697.725 957.465 708.662 976.692 708.662C994.077 708.662 1002.83 699.682 1003.75 684.14H1013.53C1012.38 703.597 1001.44 716.606 976.807 716.606ZM1060.91 716.606C1034.32 716.606 1022.69 699.452 1022.69 676.311C1022.69 653.515 1034.32 636.015 1060.91 636.015C1087.51 636.015 1099.02 653.63 1099.02 676.311C1099.02 699.337 1087.51 716.606 1060.91 716.606ZM1032.7 676.311C1032.7 697.84 1041.34 708.662 1060.91 708.662C1080.48 708.662 1089 697.84 1089 676.311C1089 654.782 1080.48 643.959 1060.91 643.959C1041.34 643.959 1032.7 654.782 1032.7 676.311ZM1111.81 714.649V638.088H1121.37V706.935H1161.43V714.649H1111.81Z" fill="black"/>
</svg>
