<svg width="1188" height="747" viewBox="0 0 1188 747" fill="none" xmlns="http://www.w3.org/2000/svg">
<path d="M833.578 154.743C829.447 145.706 824.792 136.962 819.696 128.511C811.853 115.468 803.025 103.139 793.127 91.6895C786.082 83.5325 778.512 75.8998 770.522 68.6655C757.353 56.7342 743.031 46.1239 727.66 37.0024C719.481 32.1585 711.073 27.7131 702.37 23.7709C669.217 8.69423 632.52 0.0969238 593.809 0.0969238C555.099 0.0969238 517.899 8.841 484.578 24.0854C476.043 27.9857 467.781 32.3682 459.77 37.1282C445.825 45.4109 432.698 54.8889 420.557 65.5202C410.512 74.3062 401.076 83.7422 392.457 93.9331C382.727 105.466 374.088 117.922 366.413 131.006C361.485 139.415 356.955 148.033 352.971 156.987C338.418 189.657 330.177 225.723 330.177 263.719C330.177 301.715 338.586 338.39 353.369 371.29C357.27 379.992 361.673 388.359 366.455 396.537C373.878 409.223 382.182 421.322 391.576 432.561C401.831 444.828 413.154 456.172 425.443 466.405C436.62 475.695 448.677 483.893 461.28 491.274C469.312 495.972 477.574 500.291 486.087 504.128C519.031 518.954 555.414 527.383 593.809 527.383C632.205 527.383 668.022 519.1 700.734 504.506C709.395 500.627 717.783 496.265 725.94 491.526C739.927 483.369 753.117 474.038 765.321 463.553C775.702 454.642 785.39 444.954 794.26 434.553C803.864 423.293 812.42 411.173 820.053 398.403C825.023 390.078 829.573 381.502 833.641 372.632C848.802 339.396 857.463 302.596 857.463 263.74C857.463 224.884 848.781 188.042 833.62 154.785L833.578 154.743ZM724.577 67.9106C740.242 73.09 754.103 81.0163 765.28 92.1927C776.897 103.81 785.075 117.985 790.192 133.9C792.771 141.994 794.449 150.591 795.413 159.503C797.175 175.691 796.273 193.033 792.876 211.087C792.1 215.26 791.24 219.453 790.171 223.71C789.185 227.694 788.137 231.72 786.899 235.746C784.069 245.078 780.525 254.493 776.456 263.95C774.968 267.389 773.5 270.807 771.885 274.245C770.166 277.852 768.278 281.459 766.37 285.086C760.792 295.739 754.207 306.307 747.183 316.792C745.065 319.958 743.01 323.103 740.766 326.249C738.396 329.541 735.88 332.791 733.363 336.062C733.028 332.267 732.567 328.429 731.791 324.445C731.078 320.797 730.281 317.106 729.211 313.332C726.171 302.637 721.62 291.524 715.896 280.18C711.45 287.016 706.606 293.83 701.406 300.624C706.983 313.457 710.234 325.557 711.408 336.628C711.681 339.312 712.121 342.059 712.121 344.575C712.121 346.463 711.534 347.826 711.366 349.566C710.548 358.331 708.116 365.649 703.23 370.661C703.062 370.85 702.894 371.038 702.706 371.227C697.778 375.987 690.375 378.356 681.799 379.3C679.723 379.531 678.003 380.181 675.717 380.181C673.579 380.181 671.167 379.803 668.881 379.615C657.935 378.629 645.5 375.463 631.891 369.759C629.081 368.585 626.145 367.117 623.23 365.733C620.399 364.37 617.589 363.028 614.695 361.476C617.212 359.673 619.707 357.828 622.223 355.899C624.635 354.053 627.026 352.082 629.437 350.132C638.496 342.814 647.513 335.035 656.32 326.332C665.505 317.232 673.788 307.796 681.547 298.234C683.497 295.844 685.573 293.474 687.419 291.063C689.369 288.525 691.109 285.967 692.934 283.43C697.82 276.657 702.265 269.884 706.333 263.132C707.99 260.385 709.689 257.638 711.219 254.912C712.813 251.997 714.218 249.146 715.665 246.273C721.222 235.159 725.668 224.255 728.624 213.771C729.694 209.996 730.491 206.327 731.204 202.678C731.979 198.715 732.399 194.92 732.755 191.145C735.272 194.396 737.83 197.604 740.2 200.896C742.485 204.062 744.561 207.271 746.7 210.458C753.914 221.173 760.645 231.972 766.349 242.855C769.872 233.083 772.703 223.417 774.779 213.939C767.377 201.63 759.031 189.468 749.846 177.578C746.658 173.448 743.24 169.401 739.822 165.333C733.51 157.826 726.926 150.424 719.859 143.231C718.936 142.288 718.077 141.281 717.133 140.338C716.734 139.939 716.315 139.583 715.896 139.184C708.787 132.139 701.468 125.554 694.045 119.243C689.998 115.783 685.93 112.323 681.799 109.073C669.175 99.2173 656.257 90.3265 643.172 82.4631C639.691 80.3662 636.21 78.4371 632.708 76.5079C629.018 74.453 625.327 72.5867 621.636 70.6995C625.663 69.4833 629.689 68.5397 633.715 67.5332C636.022 66.967 638.349 66.2121 640.635 65.7299C642.606 65.3105 644.472 65.1427 646.423 64.7863C658.606 62.5006 670.433 61.1376 681.61 61.1376C687.586 61.1376 693.164 61.8716 698.805 62.5216C707.843 63.5491 716.462 65.2685 724.514 67.9316L724.577 67.9106ZM528.782 409.558C525.49 407.168 522.323 404.505 519.073 401.968C522.868 401.674 526.706 401.276 530.69 400.542C534.339 399.892 538.009 399.074 541.783 398.067C553.107 395.027 564.997 390.393 577.18 384.333C570.323 379.929 563.487 375.127 556.672 369.99C542.769 375.924 530.04 379.258 518.884 380.286C516.536 380.495 514.061 380.873 511.859 380.873C509.657 380.873 507.938 380.223 505.883 379.992C497.243 379.069 489.778 376.658 484.829 371.835C484.682 371.688 484.536 371.521 484.389 371.374C479.503 366.362 477.049 359.023 476.232 350.258C476.064 348.497 475.477 347.134 475.477 345.225C475.477 342.73 475.917 340.004 476.19 337.383C477.364 326.06 480.719 313.625 486.507 300.436C481.306 293.684 476.483 286.89 472.038 280.096C466.103 291.755 461.448 303.183 458.344 314.149C457.275 317.924 456.457 321.614 455.765 325.263C454.989 329.205 454.549 333.021 454.213 336.796C451.697 333.546 449.16 330.338 446.769 327.024C444.504 323.879 442.407 320.671 440.268 317.483C433.097 306.831 426.365 296.053 420.641 285.065C418.753 281.459 416.866 277.852 415.146 274.204C413.532 270.765 412.064 267.326 410.575 263.887C412.085 260.406 413.574 256.946 415.23 253.465C416.866 250.005 418.69 246.566 420.494 243.127C426.386 231.888 433.348 220.733 440.835 209.682C442.994 206.474 445.028 203.265 447.335 200.099C449.705 196.849 452.305 193.662 454.8 190.453C455.136 194.207 455.576 198.023 456.331 201.944C457.023 205.572 457.862 209.242 458.91 212.995C461.93 223.71 466.46 234.866 472.163 246.231C473.631 249.146 475.099 252.018 476.714 254.954C478.245 257.68 479.922 260.427 481.6 263.174C485.668 269.926 490.156 276.657 495.041 283.409C496.866 285.925 498.606 288.441 500.557 290.958C502.423 293.369 504.478 295.739 506.449 298.129C514.103 307.502 522.26 316.792 531.319 325.766C540.42 334.783 549.773 342.814 559.167 350.363C561.537 352.271 563.906 354.263 566.297 356.066C568.834 357.975 571.351 359.778 573.909 361.581C580.745 366.446 587.56 370.85 594.355 374.876C597.144 376.532 599.933 378.168 602.701 379.657C605.657 381.25 608.572 382.76 611.487 384.186C623.356 390.036 634.931 394.524 645.961 397.48C649.715 398.487 653.364 399.284 656.97 399.934C660.976 400.667 664.813 401.066 668.63 401.359C665.421 403.876 662.255 406.602 659.005 408.971C655.817 411.299 652.588 413.291 649.379 415.493C637.783 423.419 626.061 430.737 614.255 436.902C610.9 438.663 607.545 440.655 604.168 442.27C600.604 443.968 597.039 445.269 593.474 446.799C590.014 445.31 586.533 443.843 583.094 442.207C579.655 440.571 576.237 438.768 572.819 437.007C561.159 430.926 549.71 423.754 538.407 416.059C535.199 413.857 531.969 411.823 528.824 409.516L528.782 409.558ZM485.228 155.687C485.228 155.687 485.374 155.561 485.437 155.477C490.428 150.633 497.893 148.243 506.575 147.32C508.588 147.11 510.266 146.46 512.446 146.46C514.627 146.46 517.207 146.838 519.597 147.069C530.522 148.096 542.937 151.283 556.483 157.008C563.319 151.87 570.176 147.069 577.075 142.686C565.207 136.836 553.631 132.306 542.601 129.308C538.806 128.28 535.115 127.504 531.466 126.833C527.461 126.079 523.623 125.68 519.828 125.366C523.078 122.828 526.287 120.228 529.579 117.817C532.745 115.51 535.975 113.455 539.183 111.274C550.213 103.81 561.369 96.8269 572.756 90.8926C576.174 89.1103 579.592 87.3279 583.031 85.6923C586.47 84.0568 589.93 82.5889 593.39 81.1211C596.955 82.6518 600.52 83.9519 604.105 85.6504C607.461 87.265 610.816 89.2571 614.192 91.0184C625.725 97.0365 637.196 104.166 648.52 111.883C651.728 114.063 654.978 116.097 658.166 118.404C661.437 120.794 664.624 123.457 667.854 125.995C664.058 126.288 660.2 126.687 656.195 127.421C652.546 128.092 648.876 128.888 645.102 129.895C634.344 132.789 623.083 137.171 611.529 142.791C608.572 144.238 605.615 145.706 602.638 147.32C599.87 148.83 597.081 150.486 594.292 152.101C587.476 156.106 580.64 160.51 573.783 165.374C571.225 167.178 568.667 168.939 566.108 170.868C563.718 172.693 561.327 174.706 558.937 176.614C549.395 184.226 539.896 192.383 530.648 201.546C521.904 210.206 513.977 219.202 506.533 228.281C509.888 234.95 513.747 241.744 518.192 248.642C526.538 237.906 535.87 227.296 546.124 217.147C557.259 206.117 568.457 196.534 579.508 188.147C581.919 186.323 584.289 184.645 586.68 182.947C589.196 181.143 591.691 179.445 594.187 177.788C596.682 179.445 599.178 181.122 601.694 182.947C604.064 184.645 606.433 186.364 608.803 188.189C619.623 196.451 630.569 205.782 641.432 216.539C651.854 226.856 661.311 237.634 669.762 248.517C674.208 241.597 678.066 234.782 681.4 228.093C673.851 218.866 665.82 209.745 656.928 200.938C647.974 192.089 638.79 184.163 629.563 176.74C627.13 174.79 624.719 172.777 622.307 170.931C619.77 169.023 617.254 167.199 614.716 165.395C617.652 163.823 620.462 162.544 623.314 161.181C626.229 159.797 629.185 158.308 632.016 157.134C645.269 151.619 657.369 148.599 668.063 147.614C670.433 147.404 672.908 147.027 675.109 147.027C677.311 147.027 678.989 147.677 681.023 147.886C689.704 148.809 697.17 151.22 702.139 156.043C702.286 156.19 702.433 156.358 702.58 156.505C707.487 161.516 709.94 168.876 710.737 177.683C710.905 179.424 711.492 180.766 711.492 182.653C711.492 185.148 711.052 187.874 710.758 190.516C709.647 201.357 706.438 213.184 701.091 225.744C699.896 228.554 698.449 231.406 697.065 234.258C695.681 237.109 694.381 239.94 692.808 242.813C689.138 249.544 684.944 256.359 680.331 263.195C678.716 265.585 676.934 267.976 675.214 270.366C673.411 272.861 671.754 275.378 669.825 277.873C661.227 289.071 651.497 300.121 640.803 310.711C630.129 321.279 619.393 330.442 608.782 338.599C606.412 340.424 604.064 342.185 601.715 343.883C599.199 345.708 596.703 347.364 594.208 349.042C591.712 347.385 589.238 345.708 586.722 343.904C584.352 342.206 581.982 340.487 579.592 338.683C568.687 330.379 557.678 320.985 546.711 310.123C536.184 299.702 526.622 288.819 518.108 277.81C516.2 275.336 514.522 272.862 512.74 270.387C511 267.997 509.238 265.606 507.623 263.216C503.01 256.422 498.753 249.649 495.062 242.96C493.469 240.066 492.211 237.256 490.806 234.404C489.401 231.553 487.891 228.68 486.695 225.891C481.138 213.037 477.867 200.896 476.735 189.824C476.462 187.224 476.022 184.54 476.022 182.066C476.022 180.158 476.609 178.774 476.777 177.033C477.595 168.226 480.048 160.866 484.976 155.855C485.039 155.792 485.102 155.708 485.165 155.645L485.228 155.687ZM391.367 161.181C392.226 152.038 394.072 143.42 396.588 135.242C401.705 118.572 409.988 103.956 421.731 92.1927C433.39 80.534 447.755 72.5657 463.734 67.4703C471.786 64.9121 480.3 63.2346 489.17 62.27C494.601 61.6829 499.99 60.9699 505.673 60.9699C516.787 60.9699 528.425 62.4587 540.252 64.6604C549.752 59.1456 559.398 54.1969 569.107 49.7096C559.482 46.9207 549.961 44.698 540.546 43.1043C533.207 41.8672 525.993 41.0494 518.863 40.5671C514.313 40.2525 509.678 39.6864 505.254 39.6864C501.983 39.6864 498.942 40.2735 495.754 40.4413C502.863 37.3169 510.119 34.528 517.563 32.0746C524.882 29.6632 532.347 27.6082 539.959 25.8888C557.322 21.9466 575.293 19.7029 593.83 19.7029C612.368 19.7029 629.689 21.8627 646.779 25.6581C654.307 27.3356 661.731 29.3277 668.986 31.6762C676.577 34.1506 684.001 36.9604 691.256 40.1477C688.069 39.9799 685.091 39.3719 681.82 39.3719C677.227 39.3719 672.425 39.8332 667.686 40.1687C660.598 40.6719 653.364 41.5736 645.982 42.8317C642.69 43.3979 639.503 43.7124 636.168 44.4254C629.752 45.8093 623.293 47.5498 616.834 49.4579C612.787 50.6532 608.74 52.1 604.693 53.484C600.708 54.8679 596.724 56.1051 592.761 57.6778C583.324 61.4103 573.993 65.8557 564.682 70.6366C561.243 72.398 557.804 74.1804 554.407 76.0885C550.737 78.1435 547.089 80.3033 543.461 82.505C530.69 90.2426 518.129 98.9028 505.946 108.423C501.794 111.652 497.789 115.133 493.741 118.572C486.36 124.82 479.104 131.363 472.059 138.283C471.346 138.912 470.507 139.352 469.815 140.044C469.06 140.799 468.515 141.721 467.823 142.518C460.735 149.711 454.129 157.092 447.817 164.578C444.399 168.604 440.96 172.63 437.773 176.74C428.253 189.007 419.655 201.609 412.022 214.316C409.988 217.713 407.87 221.068 405.962 224.486C403.907 228.198 402.082 231.93 400.195 235.663C398.958 231.595 397.993 227.527 397.008 223.459C396.462 221.257 395.749 219.034 395.267 216.832C394.848 214.84 394.638 212.932 394.261 210.961C390.968 193.326 389.92 176.614 391.388 161.223L391.367 161.181ZM667.56 496.244C660.305 498.551 652.902 500.48 645.374 502.094C628.724 505.701 611.487 507.714 593.788 507.714C576.09 507.714 558.119 505.596 541.133 501.843C533.542 500.165 526.098 498.173 518.779 495.804C511.377 493.413 504.121 490.687 497.034 487.626C499.802 487.752 502.402 488.276 505.191 488.276C510.035 488.276 515.068 487.689 520.037 487.332C527.167 486.808 534.381 485.927 541.699 484.627C550.716 483.055 559.838 480.937 569.044 478.253C559.335 473.744 549.71 468.817 540.231 463.302C528.404 465.504 516.766 466.992 505.652 466.992C500.431 466.992 495.524 466.3 490.512 465.797C481.705 464.937 473.275 463.344 465.264 460.911C448.677 455.858 433.747 447.806 421.689 435.77C409.443 423.524 401.097 408.384 396.085 391.441C393.694 383.368 392.038 374.918 391.22 366.069C389.815 350.635 390.842 334.154 394.03 317.106C388.452 307.502 383.503 297.773 378.974 287.959C376.268 297.207 374.318 306.328 372.745 315.345C371.445 322.684 370.544 329.897 370.019 337.027C369.411 344.827 369.306 352.46 369.621 359.946C366.58 352.858 363.875 345.603 361.506 338.201C359.199 331.008 357.249 323.648 355.613 316.183C351.881 299.261 349.784 281.731 349.784 263.698C349.784 245.665 351.776 228.848 355.362 212.24C356.976 204.712 358.905 197.31 361.212 190.055C363.561 182.632 366.224 175.356 369.265 168.268C368.95 175.733 369.097 183.408 369.705 191.292C370.271 198.401 371.194 205.635 372.515 213.037C373.018 215.826 373.312 218.552 373.92 221.383C375.304 227.778 377.023 234.216 378.932 240.611C380.106 244.616 381.532 248.621 382.916 252.605C384.279 256.548 385.516 260.49 387.068 264.411C390.78 273.868 395.204 283.22 399.985 292.53C401.789 296.074 403.634 299.597 405.584 303.099C407.681 306.852 409.883 310.564 412.127 314.275C419.592 326.605 427.98 338.704 437.102 350.468C440.31 354.62 443.728 358.646 447.146 362.693C453.479 370.22 460.106 377.602 467.11 384.752C468.032 385.696 468.871 386.702 469.815 387.625C470.192 388.002 470.612 388.359 471.01 388.757C478.098 395.782 485.416 402.366 492.861 408.72C496.908 412.158 500.934 415.639 505.065 418.89C517.5 428.661 530.334 437.552 543.398 445.457C547.047 447.659 550.674 449.819 554.344 451.853C557.762 453.761 561.201 455.564 564.64 457.326C573.93 462.086 583.282 466.531 592.698 470.264C596.661 471.836 600.645 473.073 604.63 474.457C608.677 475.862 612.703 477.309 616.771 478.504C623.209 480.413 629.668 482.174 636.105 483.537C638.978 484.145 641.746 484.418 644.598 484.921C651.959 486.242 659.193 487.186 666.281 487.752C671.503 488.15 676.745 488.632 681.799 488.632C684.546 488.632 687.041 488.087 689.746 487.982C682.533 491.086 675.13 493.854 667.56 496.244ZM831.586 317.567C829.909 325.032 827.916 332.351 825.568 339.543C823.135 346.924 820.409 354.158 817.306 361.225C817.683 353.76 817.599 346.127 817.033 338.348C816.53 331.239 815.691 324.026 814.433 316.708C812.818 307.146 810.784 297.479 807.911 287.687C803.403 297.5 798.433 307.251 792.876 316.854C796.21 334.615 797.154 351.705 795.497 367.662C794.595 376.511 792.939 385.025 790.422 393.077C785.348 409.37 777.107 423.901 765.259 435.749C753.704 447.323 739.214 455.397 722.837 460.534C714.826 463.05 706.312 464.707 697.337 465.629C692.2 466.175 687.167 466.888 681.736 466.888C670.517 466.888 658.669 465.504 646.423 463.197C644.472 462.841 642.627 462.673 640.656 462.253C638.349 461.75 636.022 461.016 633.715 460.45C629.689 459.444 625.683 458.5 621.636 457.284C625.348 455.418 629.018 453.53 632.708 451.475C636.21 449.525 639.691 447.596 643.172 445.52C656.509 437.51 669.657 428.409 682.512 418.323C686.664 415.052 690.732 411.613 694.8 408.111C702.286 401.716 709.689 395.069 716.86 387.918C716.944 387.834 717.049 387.751 717.133 387.646C718.307 386.471 719.356 385.234 720.53 384.039C727.576 376.826 734.16 369.424 740.451 361.896C743.869 357.807 747.266 353.739 750.454 349.566C759.387 337.928 767.523 326.06 774.758 314.024C776.981 310.333 779.266 306.664 781.321 302.952C783.314 299.387 785.054 295.802 786.878 292.195C791.639 282.801 796.021 273.386 799.691 263.992C801.243 260.049 802.522 256.149 803.864 252.207C805.227 248.244 806.716 244.26 807.89 240.297C810.805 230.378 812.839 220.607 814.475 210.94C815.712 203.58 816.572 196.325 817.054 189.153C817.578 181.332 817.662 173.657 817.264 166.15C820.367 173.259 823.135 180.514 825.568 187.958C827.937 195.171 829.929 202.552 831.628 210.059C835.528 227.338 837.772 245.245 837.772 263.719C837.772 282.193 835.507 300.247 831.586 317.588V317.567Z" fill="white"/>
<path d="M38.6817 687.923C38.912 699.782 45.0139 708.417 62.7439 708.417C78.5167 708.417 83.3522 703.005 83.3522 694.14C83.3522 686.081 79.0924 682.052 69.4214 680.44L51.346 677.677C38.1061 675.72 32.0042 669.157 32.0042 657.644C32.0042 645.325 41.2146 635.539 61.0169 635.539C81.1647 635.539 91.0659 645.671 92.102 660.407H82.7765C81.7403 650.046 75.4082 643.023 61.0169 643.023C47.4316 643.023 41.6751 648.894 41.6751 657.414C41.6751 663.401 44.4382 668.121 53.1881 669.503L72.2997 672.381C85.885 674.568 93.0231 680.555 93.0231 692.874C93.0231 707.496 84.1581 715.9 62.7439 715.9C37.9909 715.9 29.3562 703.005 29.3562 687.923H38.6817ZM139.648 716.13C113.053 716.13 101.425 698.976 101.425 675.835C101.425 653.039 113.053 635.539 139.648 635.539C166.243 635.539 177.756 653.154 177.756 675.835C177.756 698.861 166.243 716.13 139.648 716.13ZM111.441 675.835C111.441 697.364 120.076 708.186 139.648 708.186C159.22 708.186 167.74 697.364 167.74 675.835C167.74 654.305 159.22 643.483 139.648 643.483C120.076 643.483 111.441 654.305 111.441 675.835ZM225.664 716.13C199.299 716.13 187.441 699.091 187.441 675.835C187.441 652.809 199.529 635.539 225.894 635.539C249.496 635.539 260.203 647.167 262.16 666.164H252.374C250.762 651.197 242.358 643.483 225.779 643.483C206.552 643.483 197.457 654.421 197.457 675.835C197.457 697.249 206.322 708.186 225.549 708.186C242.933 708.186 251.683 699.206 252.604 683.664H262.39C261.239 703.121 250.302 716.13 225.664 716.13ZM276.038 714.173V706.459H292.272V645.325H276.038V637.612H318.061V645.325H301.828V706.459H318.061V714.173H276.038ZM349.803 678.598V706.459H397.236V714.173H340.247V637.612H396.891V645.325H349.803V670.999H393.437V678.598H349.803ZM432.271 714.288V645.325H404.64V637.612H469.112V645.325H441.712V714.288H432.271ZM469.563 637.612H480.5L497.885 669.272C499.612 672.611 501.339 675.835 503.181 679.058C504.908 675.835 506.75 672.611 508.477 669.272L525.977 637.612H536.684L507.901 687.348V714.173H498.346V687.348L469.563 637.612ZM604.519 637.612C620.982 637.612 627.66 647.628 627.66 659.947C627.66 672.151 620.982 682.397 604.058 682.397H579.075V714.173H569.404V637.612H604.519ZM579.075 674.683H602.101C613.499 674.683 617.644 668.697 617.644 659.947C617.644 650.852 613.499 645.325 602.447 645.325H579.075V674.683ZM696.214 701.969C696.214 707.611 697.02 711.295 697.71 714.173H688.385C687.579 711.64 687.003 707.841 687.003 702.315V695.292C687.003 684.354 681.132 679.864 670.54 679.864H649.01V714.173H639.455V637.612H675.145C690.918 637.612 698.631 645.44 698.631 657.759C698.631 668.006 692.299 675.144 683.78 677.101C691.033 679.174 696.214 682.627 696.214 693.91V701.969ZM649.01 672.726H673.994C684.701 672.726 688.615 667.315 688.615 658.565C688.615 649.7 684.125 645.325 674.109 645.325H649.01V672.726ZM745.856 716.13C719.261 716.13 707.633 698.976 707.633 675.835C707.633 653.039 719.261 635.539 745.856 635.539C772.451 635.539 783.964 653.154 783.964 675.835C783.964 698.861 772.451 716.13 745.856 716.13ZM717.649 675.835C717.649 697.364 726.284 708.186 745.856 708.186C765.428 708.186 773.948 697.364 773.948 675.835C773.948 654.305 765.428 643.483 745.856 643.483C726.284 643.483 717.649 654.305 717.649 675.835ZM813.784 714.288V645.325H786.153V637.612H850.626V645.325H823.225V714.288H813.784ZM890.792 716.13C864.196 716.13 852.568 698.976 852.568 675.835C852.568 653.039 864.196 635.539 890.792 635.539C917.387 635.539 928.9 653.154 928.9 675.835C928.9 698.861 917.387 716.13 890.792 716.13ZM862.585 675.835C862.585 697.364 871.219 708.186 890.792 708.186C910.364 708.186 918.883 697.364 918.883 675.835C918.883 654.305 910.364 643.483 890.792 643.483C871.219 643.483 862.585 654.305 862.585 675.835ZM976.807 716.13C950.442 716.13 938.584 699.091 938.584 675.835C938.584 652.809 950.673 635.539 977.037 635.539C1000.64 635.539 1011.35 647.167 1013.3 666.164H1003.52C1001.91 651.197 993.501 643.483 976.922 643.483C957.696 643.483 948.6 654.421 948.6 675.835C948.6 697.249 957.465 708.186 976.692 708.186C994.077 708.186 1002.83 699.206 1003.75 683.664H1013.53C1012.38 703.121 1001.44 716.13 976.807 716.13ZM1060.91 716.13C1034.32 716.13 1022.69 698.976 1022.69 675.835C1022.69 653.039 1034.32 635.539 1060.91 635.539C1087.51 635.539 1099.02 653.154 1099.02 675.835C1099.02 698.861 1087.51 716.13 1060.91 716.13ZM1032.7 675.835C1032.7 697.364 1041.34 708.186 1060.91 708.186C1080.48 708.186 1089 697.364 1089 675.835C1089 654.305 1080.48 643.483 1060.91 643.483C1041.34 643.483 1032.7 654.305 1032.7 675.835ZM1111.81 714.173V637.612H1121.37V706.459H1161.43V714.173H1111.81Z" fill="white"/>
</svg>
